<svg width="18" height="18" viewBox="0 0 18 18" fill="none" xmlns="http://www.w3.org/2000/svg">
<path d="M17.5079 15.1219L11.386 9.00001L17.5079 2.87813C18.1688 2.21719 18.1688 1.15313 17.5079 0.492194C16.847 -0.168744 15.7829 -0.168744 15.122 0.492194L9.0001 6.61407L2.87822 0.492194C2.21729 -0.168744 1.15322 -0.168744 0.492285 0.492194C-0.168652 1.15313 -0.168652 2.21719 0.492285 2.87813L6.61416 9.00001L0.492285 15.1219C-0.168652 15.7828 -0.168652 16.8469 0.492285 17.5078C1.15322 18.1688 2.21729 18.1688 2.87822 17.5078L9.0001 11.3859L15.122 17.5078C15.7829 18.1688 16.847 18.1688 17.5079 17.5078C18.1642 16.8469 18.1642 15.7781 17.5079 15.1219Z" fill="white"/>
</svg>
