<svg width="148" height="141" viewBox="0 0 148 141" fill="none" xmlns="http://www.w3.org/2000/svg">
<path d="M74.3185 15.358C77.8868 15.358 80.7795 12.4653 80.7795 8.89702C80.7795 5.32872 77.8868 2.43604 74.3185 2.43604C70.7502 2.43604 67.8575 5.32872 67.8575 8.89702C67.8575 12.4653 70.7502 15.358 74.3185 15.358Z" fill="#5D2B9E"/>
<path d="M105.526 0V8.87276C105.525 14.717 103.884 20.4437 100.79 25.4016C97.6956 30.3595 93.2723 34.3498 88.0229 36.9188C86.5608 37.6473 85.3323 38.7711 84.4768 40.1627C83.6213 41.5543 83.1732 43.1578 83.1832 44.7913V58.7054C83.1833 60.1828 82.8144 61.6369 82.1102 62.9356C81.4059 64.2343 80.3884 65.3366 79.1502 66.1424C77.7109 67.0824 76.0295 67.584 74.3105 67.5863H73.9233C73.9768 67.4776 74.02 67.3642 74.0524 67.2475C74.5891 65.6161 74.634 63.8629 74.1814 62.2061C73.8002 60.7751 73.0668 59.4622 72.0482 58.3872C71.0296 57.3123 69.7581 56.5093 68.3496 56.0517L65.4377 55.0676V44.7913C65.4468 43.158 64.9983 41.5549 64.1429 40.1634C63.2875 38.772 62.0595 37.648 60.598 36.9188C55.3507 34.3479 50.9296 30.357 47.837 25.3993C44.7443 20.4416 43.1041 14.716 43.1025 8.87276V0H52.3947C54.6489 0.00213562 56.8101 0.898536 58.404 2.49246C59.9979 4.08637 60.8943 6.24758 60.8965 8.50172C60.8937 12.0069 62.1997 15.3868 64.5585 17.9794C66.8932 20.5675 70.1601 22.1226 73.641 22.3029C75.4603 22.3925 77.2788 22.1115 78.9862 21.477C80.6936 20.8426 82.2543 19.8678 83.5736 18.6119C84.8929 17.3559 85.9432 15.8451 86.6609 14.1709C87.3786 12.4968 87.7487 10.6943 87.7487 8.87276V8.47752C87.7551 6.22692 88.6536 4.07069 90.2473 2.48153C91.841 0.892383 93.9998 -9.11652e-06 96.2504 0L105.526 0Z" fill="#853DE2"/>
<path d="M18.2023 55.5355C21.7706 55.5355 24.6633 52.6428 24.6633 49.0745C24.6633 45.5062 21.7706 42.6135 18.2023 42.6135C14.634 42.6135 11.7413 45.5062 11.7413 49.0745C11.7413 52.6428 14.634 55.5355 18.2023 55.5355Z" fill="#03958C"/>
<path d="M74.0363 67.2071C74.0039 67.3238 73.9607 67.4372 73.9072 67.5458C73.8185 67.4652 73.7136 67.3926 73.6168 67.32C72.2208 66.2981 70.5539 65.7115 68.8255 65.6342C67.3494 65.5575 65.8774 65.8508 64.5434 66.4876C63.2094 67.1243 62.0557 68.0842 61.1869 69.2801L59.3559 71.7886L49.6039 68.6186C48.0543 68.1036 46.3916 68.0323 44.8036 68.4129C43.2157 68.7935 41.7659 69.6108 40.6182 70.7723C36.5564 74.9676 31.3995 77.9398 25.7333 79.3514C20.0671 80.7629 14.1185 80.5573 8.56332 78.7578L0.101929 75.9992L2.97348 67.1748C3.67161 65.0314 5.19163 63.2526 7.19992 62.2288C9.20821 61.205 11.5407 61.0199 13.6853 61.714L14.0564 61.835C15.856 62.4194 17.7588 62.6168 19.6401 62.4141C21.5213 62.2114 23.3384 61.6132 24.9722 60.6588C26.606 59.7045 28.0196 58.4154 29.1201 56.8763C30.2207 55.3372 30.9834 53.5828 31.3583 51.7281C32.7537 44.9768 28.5432 38.3141 21.9854 36.1847C20.9222 35.8417 19.9373 35.2922 19.087 34.5677C18.2367 33.8433 17.5378 32.958 17.0305 31.9628C16.5231 30.9675 16.2173 29.8819 16.1305 28.7682C16.0436 27.6545 16.1776 26.5346 16.5246 25.4728L19.3881 16.6484L27.8495 19.3587C33.3757 21.1626 38.2894 24.472 42.0383 28.9148C45.7872 33.3577 48.2229 38.758 49.0715 44.5089C49.3053 46.1504 49.9923 47.6942 51.0553 48.9667C52.1183 50.2391 53.5152 51.1899 55.0889 51.712L65.4377 55.0675L68.3496 56.0112C69.7581 56.4689 71.0296 57.2718 72.0482 58.3468C73.0669 59.4218 73.8002 60.7347 74.1814 62.1657C74.6288 63.824 74.5783 65.5773 74.0363 67.2071Z" fill="#04D5C9"/>
<path d="M39.0695 121.315C42.6378 121.315 45.5305 118.422 45.5305 114.854C45.5305 111.285 42.6378 108.393 39.0695 108.393C35.5012 108.393 32.6085 111.285 32.6085 114.854C32.6085 118.422 35.5012 121.315 39.0695 121.315Z" fill="#B14A47"/>
<path d="M73.8911 67.5945C73.8955 67.6104 73.8955 67.6271 73.8911 67.6429C73.7841 67.7026 73.6817 67.77 73.5845 67.8446C72.6398 68.5292 71.8393 69.3933 71.2289 70.3877C70.6185 71.382 70.2102 72.4869 70.0274 73.6392C69.8446 74.7916 69.8909 75.9686 70.1635 77.103C70.4362 78.2374 70.9299 79.307 71.6164 80.2503L73.4152 82.7266L67.3736 91.0509C66.4069 92.3952 65.8356 93.9833 65.7244 95.6354C65.6132 97.2875 65.9665 98.9378 66.7445 100.4C69.4251 105.551 70.6186 111.347 70.1912 117.138C69.7638 122.929 67.7324 128.487 64.3246 133.188L59.0897 140.351L51.8947 135.124C50.9505 134.439 50.1507 133.575 49.5411 132.58C48.9315 131.585 48.524 130.48 48.3419 129.328C48.1599 128.176 48.2069 126.999 48.4801 125.865C48.7534 124.731 49.2477 123.661 49.9346 122.719C52.0279 119.838 52.8911 116.244 52.3345 112.727C51.7778 109.21 49.8468 106.058 46.9663 103.965C44.0857 101.872 40.4916 101.008 36.9746 101.565C33.4576 102.122 30.3057 104.053 28.2125 106.933C27.5278 107.879 26.6632 108.681 25.6682 109.292C24.6732 109.903 23.5674 110.311 22.4141 110.494C21.2609 110.677 20.0828 110.631 18.9476 110.357C17.8124 110.084 16.7423 109.589 15.7987 108.901L8.59558 103.674L13.8144 96.5117C17.232 91.8133 21.8921 88.161 27.2711 85.9653C32.6501 83.7695 38.5348 83.1172 44.2641 84.0817C45.895 84.369 47.5737 84.1941 49.1104 83.5769C50.6471 82.9597 51.9804 81.9247 52.9594 80.5891L59.3559 71.7889L61.1546 69.3126C62.0234 68.1167 63.1772 67.1568 64.5112 66.5201C65.8452 65.8834 67.3171 65.5901 68.7933 65.6667C70.5216 65.7441 72.1885 66.3306 73.5845 67.3525C73.6813 67.4251 73.7862 67.4977 73.8749 67.5784L73.8911 67.5945Z" fill="#FD6A65"/>
<path d="M108.083 121.791C111.652 121.791 114.544 118.898 114.544 115.33C114.544 111.762 111.652 108.869 108.083 108.869C104.515 108.869 101.622 111.762 101.622 115.33C101.622 118.898 104.515 121.791 108.083 121.791Z" fill="#B18823"/>
<path d="M138.557 104.182L131.362 109.409C130.419 110.097 129.349 110.592 128.213 110.865C127.078 111.139 125.9 111.185 124.747 111.002C123.594 110.819 122.488 110.411 121.493 109.8C120.498 109.189 119.633 108.387 118.949 107.441C117.912 106.015 116.605 104.807 115.101 103.886C113.598 102.965 111.928 102.349 110.186 102.073C108.445 101.797 106.666 101.867 104.952 102.279C103.238 102.691 101.621 103.436 100.195 104.473C98.7685 105.509 97.5603 106.817 96.6392 108.32C95.7182 109.823 95.1022 111.494 94.8266 113.235C94.5509 114.976 94.621 116.755 95.0328 118.47C95.4446 120.184 96.19 121.8 97.2265 123.227C97.9155 124.169 98.4118 125.238 98.687 126.372C98.9623 127.506 99.011 128.684 98.8304 129.837C98.6498 130.99 98.2435 132.096 97.6347 133.092C97.0259 134.088 96.2265 134.954 95.2825 135.64L88.0794 140.875L82.8526 133.672C79.4423 128.97 77.4095 123.411 76.9821 117.618C76.5546 111.825 77.7495 106.027 80.4327 100.875C81.2123 99.4126 81.5665 97.7608 81.4553 96.1071C81.3441 94.4533 80.7719 92.8638 79.8036 91.5186L73.4152 82.7265L71.6164 80.2502C70.9299 79.3068 70.4362 78.2373 70.1635 77.1029C69.8909 75.9685 69.8446 74.7914 70.0274 73.6391C70.2103 72.4868 70.6185 71.3819 71.2289 70.3876C71.8393 69.3932 72.6398 68.529 73.5846 67.8445C73.6817 67.7699 73.7841 67.7025 73.8911 67.6428C73.8911 67.6428 73.8911 67.6428 73.8911 67.6428C73.8911 67.7557 73.9556 67.8767 73.9879 67.9977C74.5135 69.6358 75.5127 71.0813 76.8594 72.1518C78.0089 73.0845 79.3734 73.7148 80.8287 73.9853C82.2841 74.2558 83.7839 74.1579 85.1918 73.7005L88.0875 72.7568L94.129 81.081C95.1087 82.418 96.4433 83.4539 97.9816 84.0712C99.5199 84.6885 101.2 84.8625 102.832 84.5737C108.561 83.6102 114.444 84.2621 119.823 86.4563C125.202 88.6504 129.862 92.3 133.282 96.9955L138.557 104.182Z" fill="#FDC332"/>
<path d="M129.87 56.3099C133.438 56.3099 136.331 53.4172 136.331 49.8489C136.331 46.2806 133.438 43.3879 129.87 43.3879C126.302 43.3879 123.409 46.2806 123.409 49.8489C123.409 53.4172 126.302 56.3099 129.87 56.3099Z" fill="#0163B1"/>
<path d="M147.962 76.79L139.509 79.5325C133.953 81.3327 128.004 81.5395 122.337 80.1294C116.669 78.7193 111.511 75.7488 107.446 71.555C106.307 70.3961 104.867 69.5776 103.288 69.1915C101.71 68.8054 100.055 68.8669 98.5089 69.3691L88.1762 72.7246L85.2804 73.6684C83.8726 74.1258 82.3727 74.2237 80.9174 73.9532C79.4621 73.6827 78.0975 73.0524 76.9481 72.1197C75.6014 71.0492 74.6021 69.6036 74.0765 67.9656C74.0765 67.8446 74.0039 67.7236 73.9797 67.6107H74.3105C76.0319 67.6012 77.7135 67.0911 79.1501 66.1426C80.3895 65.336 81.4077 64.2325 82.1121 62.9322C82.8164 61.632 83.1846 60.1763 83.1832 58.6976V55.6566L92.9594 52.4867C94.534 51.9674 95.9316 51.0173 96.9938 49.7442C98.0559 48.471 98.7401 46.9258 98.9687 45.2836C99.8274 39.5353 102.271 34.1401 106.025 29.7033C109.78 25.2665 114.696 21.9637 120.223 20.1656L128.676 17.4231L131.58 26.2233C131.927 27.2872 132.061 28.4093 131.974 29.5251C131.887 30.6409 131.581 31.7285 131.073 32.7258C130.565 33.7231 129.865 34.6103 129.014 35.3368C128.162 36.0632 127.176 36.6146 126.111 36.9593C123.348 37.847 120.934 39.5792 119.207 41.9119C117.481 44.2446 116.53 47.0602 116.488 49.9619C116.488 51.1036 116.64 52.2403 116.94 53.3417C117.417 55.0921 118.243 56.728 119.369 58.1508C120.495 59.5735 121.897 60.7538 123.49 61.6204C125.084 62.487 126.837 63.0222 128.643 63.1936C130.449 63.365 132.272 63.1691 134 62.6177C135.11 62.2542 136.281 62.1135 137.445 62.2035C138.61 62.2936 139.745 62.6127 140.786 63.1425C141.827 63.6723 142.753 64.4025 143.511 65.291C144.269 66.1796 144.845 67.2091 145.204 68.3205L147.962 76.79Z" fill="#018EFE"/>
</svg>
