<svg width="389" height="141" viewBox="0 0 389 141" fill="none" xmlns="http://www.w3.org/2000/svg">
<g clip-path="url(#clip0_39_520)">
<path d="M74.3185 15.358C77.8868 15.358 80.7795 12.4653 80.7795 8.89702C80.7795 5.32872 77.8868 2.43604 74.3185 2.43604C70.7502 2.43604 67.8575 5.32872 67.8575 8.89702C67.8575 12.4653 70.7502 15.358 74.3185 15.358Z" fill="#5D2B9E"/>
<path d="M105.526 0V8.87276C105.525 14.717 103.884 20.4437 100.79 25.4016C97.6956 30.3595 93.2723 34.3498 88.0229 36.9188C86.5608 37.6473 85.3323 38.7711 84.4768 40.1627C83.6213 41.5543 83.1732 43.1578 83.1832 44.7913V58.7054C83.1833 60.1828 82.8144 61.6369 82.1102 62.9356C81.4059 64.2343 80.3884 65.3366 79.1502 66.1424C77.7109 67.0824 76.0295 67.584 74.3105 67.5863H73.9233C73.9768 67.4776 74.02 67.3642 74.0524 67.2475C74.5891 65.6161 74.634 63.8629 74.1814 62.2061C73.8002 60.7751 73.0668 59.4622 72.0482 58.3872C71.0296 57.3123 69.7581 56.5093 68.3496 56.0517L65.4377 55.0676V44.7913C65.4468 43.158 64.9983 41.5549 64.1429 40.1634C63.2875 38.772 62.0595 37.648 60.598 36.9188C55.3507 34.3479 50.9296 30.357 47.837 25.3993C44.7443 20.4416 43.1041 14.716 43.1025 8.87276V0H52.3947C54.6489 0.00213562 56.8101 0.898536 58.404 2.49246C59.9979 4.08637 60.8943 6.24758 60.8965 8.50172C60.8937 12.0069 62.1997 15.3868 64.5585 17.9794C66.8932 20.5675 70.1601 22.1226 73.641 22.3029C75.4603 22.3925 77.2788 22.1115 78.9862 21.477C80.6936 20.8426 82.2543 19.8678 83.5736 18.6119C84.8929 17.3559 85.9432 15.8451 86.6609 14.1709C87.3786 12.4968 87.7487 10.6943 87.7487 8.87276V8.47752C87.7551 6.22692 88.6536 4.07069 90.2473 2.48153C91.841 0.892383 93.9998 -9.11652e-06 96.2504 0L105.526 0Z" fill="#853DE2"/>
<path d="M18.2023 55.5355C21.7706 55.5355 24.6633 52.6428 24.6633 49.0745C24.6633 45.5062 21.7706 42.6135 18.2023 42.6135C14.634 42.6135 11.7413 45.5062 11.7413 49.0745C11.7413 52.6428 14.634 55.5355 18.2023 55.5355Z" fill="#03958C"/>
<path d="M74.0363 67.2071C74.0039 67.3238 73.9607 67.4372 73.9072 67.5458C73.8185 67.4652 73.7136 67.3926 73.6168 67.32C72.2208 66.2981 70.5539 65.7115 68.8255 65.6342C67.3494 65.5575 65.8774 65.8508 64.5434 66.4876C63.2094 67.1243 62.0557 68.0842 61.1869 69.2801L59.3559 71.7886L49.6039 68.6186C48.0543 68.1036 46.3916 68.0323 44.8036 68.4129C43.2157 68.7935 41.7659 69.6108 40.6182 70.7723C36.5564 74.9676 31.3995 77.9398 25.7333 79.3514C20.0671 80.7629 14.1185 80.5573 8.56332 78.7578L0.101929 75.9992L2.97348 67.1748C3.67161 65.0314 5.19163 63.2526 7.19992 62.2288C9.20821 61.205 11.5407 61.0199 13.6853 61.714L14.0564 61.835C15.856 62.4194 17.7588 62.6168 19.6401 62.4141C21.5213 62.2114 23.3384 61.6132 24.9722 60.6588C26.606 59.7045 28.0196 58.4154 29.1201 56.8763C30.2207 55.3372 30.9834 53.5828 31.3583 51.7281C32.7537 44.9768 28.5432 38.3141 21.9854 36.1847C20.9222 35.8417 19.9373 35.2922 19.087 34.5677C18.2367 33.8433 17.5378 32.958 17.0305 31.9628C16.5231 30.9675 16.2173 29.8819 16.1305 28.7682C16.0436 27.6545 16.1776 26.5346 16.5246 25.4728L19.3881 16.6484L27.8495 19.3587C33.3757 21.1626 38.2894 24.472 42.0383 28.9148C45.7872 33.3577 48.2229 38.758 49.0715 44.5089C49.3053 46.1504 49.9923 47.6942 51.0553 48.9667C52.1183 50.2391 53.5152 51.1899 55.0889 51.712L65.4377 55.0675L68.3496 56.0112C69.7581 56.4689 71.0296 57.2718 72.0482 58.3468C73.0669 59.4218 73.8002 60.7347 74.1814 62.1657C74.6288 63.824 74.5783 65.5773 74.0363 67.2071Z" fill="#04D5C9"/>
<path d="M39.0695 121.315C42.6378 121.315 45.5305 118.422 45.5305 114.854C45.5305 111.285 42.6378 108.393 39.0695 108.393C35.5012 108.393 32.6085 111.285 32.6085 114.854C32.6085 118.422 35.5012 121.315 39.0695 121.315Z" fill="#B14A47"/>
<path d="M73.8911 67.5945C73.8955 67.6104 73.8955 67.6271 73.8911 67.6429C73.7841 67.7026 73.6817 67.77 73.5845 67.8446C72.6398 68.5292 71.8393 69.3933 71.2289 70.3877C70.6185 71.382 70.2102 72.4869 70.0274 73.6392C69.8446 74.7916 69.8909 75.9686 70.1635 77.103C70.4362 78.2374 70.9299 79.307 71.6164 80.2503L73.4152 82.7266L67.3736 91.0509C66.4069 92.3952 65.8356 93.9833 65.7244 95.6354C65.6132 97.2875 65.9665 98.9378 66.7445 100.4C69.4251 105.551 70.6186 111.347 70.1912 117.138C69.7638 122.929 67.7324 128.487 64.3246 133.188L59.0897 140.351L51.8947 135.124C50.9505 134.439 50.1507 133.575 49.5411 132.58C48.9315 131.585 48.524 130.48 48.3419 129.328C48.1599 128.176 48.2069 126.999 48.4801 125.865C48.7534 124.731 49.2477 123.661 49.9346 122.719C52.0279 119.838 52.8911 116.244 52.3345 112.727C51.7778 109.21 49.8468 106.058 46.9663 103.965C44.0857 101.872 40.4916 101.008 36.9746 101.565C33.4576 102.122 30.3057 104.053 28.2125 106.933C27.5278 107.879 26.6632 108.681 25.6682 109.292C24.6732 109.903 23.5674 110.311 22.4141 110.494C21.2609 110.677 20.0828 110.631 18.9476 110.357C17.8124 110.084 16.7423 109.589 15.7987 108.901L8.59558 103.674L13.8144 96.5117C17.232 91.8133 21.8921 88.161 27.2711 85.9653C32.6501 83.7695 38.5348 83.1172 44.2641 84.0817C45.895 84.369 47.5737 84.1941 49.1104 83.5769C50.6471 82.9597 51.9804 81.9247 52.9594 80.5891L59.3559 71.7889L61.1546 69.3126C62.0234 68.1167 63.1772 67.1568 64.5112 66.5201C65.8452 65.8834 67.3171 65.5901 68.7933 65.6667C70.5216 65.7441 72.1885 66.3306 73.5845 67.3525C73.6813 67.4251 73.7862 67.4977 73.8749 67.5784L73.8911 67.5945Z" fill="#FD6A65"/>
<path d="M108.083 121.791C111.652 121.791 114.544 118.898 114.544 115.33C114.544 111.762 111.652 108.869 108.083 108.869C104.515 108.869 101.622 111.762 101.622 115.33C101.622 118.898 104.515 121.791 108.083 121.791Z" fill="#B18823"/>
<path d="M138.557 104.182L131.362 109.409C130.419 110.097 129.349 110.592 128.213 110.865C127.078 111.139 125.9 111.185 124.747 111.002C123.594 110.819 122.488 110.411 121.493 109.8C120.498 109.189 119.633 108.387 118.949 107.441C117.912 106.015 116.605 104.807 115.101 103.886C113.598 102.965 111.928 102.349 110.186 102.073C108.445 101.797 106.666 101.867 104.952 102.279C103.238 102.691 101.621 103.436 100.195 104.473C98.7685 105.509 97.5603 106.817 96.6392 108.32C95.7182 109.823 95.1022 111.494 94.8266 113.235C94.5509 114.976 94.621 116.755 95.0328 118.47C95.4446 120.184 96.19 121.8 97.2265 123.227C97.9155 124.169 98.4118 125.238 98.687 126.372C98.9623 127.506 99.011 128.684 98.8304 129.837C98.6498 130.99 98.2435 132.096 97.6347 133.092C97.0259 134.088 96.2265 134.954 95.2825 135.64L88.0794 140.875L82.8526 133.672C79.4423 128.97 77.4095 123.411 76.9821 117.618C76.5546 111.825 77.7495 106.027 80.4327 100.875C81.2123 99.4126 81.5665 97.7608 81.4553 96.1071C81.3441 94.4533 80.7719 92.8638 79.8036 91.5186L73.4152 82.7265L71.6164 80.2502C70.9299 79.3068 70.4362 78.2373 70.1635 77.1029C69.8909 75.9685 69.8446 74.7914 70.0274 73.6391C70.2103 72.4868 70.6185 71.3819 71.2289 70.3876C71.8393 69.3932 72.6398 68.529 73.5846 67.8445C73.6817 67.7699 73.7841 67.7025 73.8911 67.6428C73.8911 67.6428 73.8911 67.6428 73.8911 67.6428C73.8911 67.7557 73.9556 67.8767 73.9879 67.9977C74.5135 69.6358 75.5127 71.0813 76.8594 72.1518C78.0089 73.0845 79.3734 73.7148 80.8287 73.9853C82.2841 74.2558 83.7839 74.1579 85.1918 73.7005L88.0875 72.7568L94.129 81.081C95.1087 82.418 96.4433 83.4539 97.9816 84.0712C99.5199 84.6885 101.2 84.8625 102.832 84.5737C108.561 83.6102 114.444 84.2621 119.823 86.4563C125.202 88.6504 129.862 92.3 133.282 96.9955L138.557 104.182Z" fill="#FDC332"/>
<path d="M129.87 56.3099C133.438 56.3099 136.331 53.4172 136.331 49.8489C136.331 46.2806 133.438 43.3879 129.87 43.3879C126.302 43.3879 123.409 46.2806 123.409 49.8489C123.409 53.4172 126.302 56.3099 129.87 56.3099Z" fill="#0163B1"/>
<path d="M147.962 76.79L139.509 79.5325C133.953 81.3327 128.004 81.5395 122.337 80.1294C116.669 78.7193 111.511 75.7488 107.446 71.555C106.307 70.3961 104.867 69.5776 103.288 69.1915C101.71 68.8054 100.055 68.8669 98.5089 69.3691L88.1762 72.7246L85.2804 73.6684C83.8726 74.1258 82.3727 74.2237 80.9174 73.9532C79.4621 73.6827 78.0975 73.0524 76.9481 72.1197C75.6014 71.0492 74.6021 69.6036 74.0765 67.9656C74.0765 67.8446 74.0039 67.7236 73.9797 67.6107H74.3105C76.0319 67.6012 77.7135 67.0911 79.1501 66.1426C80.3895 65.336 81.4077 64.2325 82.1121 62.9322C82.8164 61.632 83.1846 60.1763 83.1832 58.6976V55.6566L92.9594 52.4867C94.534 51.9674 95.9316 51.0173 96.9938 49.7442C98.0559 48.471 98.7401 46.9258 98.9687 45.2836C99.8274 39.5353 102.271 34.1401 106.025 29.7033C109.78 25.2665 114.696 21.9637 120.223 20.1656L128.676 17.4231L131.58 26.2233C131.927 27.2872 132.061 28.4093 131.974 29.5251C131.887 30.6409 131.581 31.7285 131.073 32.7258C130.565 33.7231 129.865 34.6103 129.014 35.3368C128.162 36.0632 127.176 36.6146 126.111 36.9593C123.348 37.847 120.934 39.5792 119.207 41.9119C117.481 44.2446 116.53 47.0602 116.488 49.9619C116.488 51.1036 116.64 52.2403 116.94 53.3417C117.417 55.0921 118.243 56.728 119.369 58.1508C120.495 59.5735 121.897 60.7538 123.49 61.6204C125.084 62.487 126.837 63.0222 128.643 63.1936C130.449 63.365 132.272 63.1691 134 62.6177C135.11 62.2542 136.281 62.1135 137.445 62.2035C138.61 62.2936 139.745 62.6127 140.786 63.1425C141.827 63.6723 142.753 64.4025 143.511 65.291C144.269 66.1796 144.845 67.2091 145.204 68.3205L147.962 76.79Z" fill="#018EFE"/>
<path d="M181.356 74.8298C177.592 74.8298 174.61 74.1173 172.411 72.6923C170.235 71.3058 168.603 69.2122 167.789 66.7636C166.863 63.9158 166.419 60.9334 166.474 57.9393V39.6614C166.407 36.5873 166.852 33.5235 167.789 30.595C168.593 28.1561 170.229 26.0775 172.411 24.7229C174.605 23.3355 177.587 22.6445 181.356 22.6499C184.992 22.6499 187.85 23.2575 189.931 24.4728C191.948 25.6251 193.5 27.4451 194.319 29.619C195.224 32.0898 195.662 34.7074 195.609 37.3383V41.6134H185.559V36.8382C185.565 35.7358 185.503 34.634 185.373 33.5392C185.293 32.6173 184.933 31.7421 184.341 31.0306C183.952 30.6693 183.49 30.3953 182.986 30.227C182.483 30.0586 181.949 29.9999 181.421 30.0546C180.876 30.0055 180.326 30.0698 179.807 30.2433C179.288 30.4168 178.81 30.6958 178.404 31.0629C177.752 31.7909 177.336 32.6992 177.21 33.6682C177.035 34.8429 176.951 36.0296 176.96 37.2173V60.3269C176.943 61.5805 177.059 62.8325 177.307 64.0615C177.471 64.9897 177.932 65.8392 178.622 66.4813C179.418 67.1005 180.415 67.4048 181.421 67.3363C181.939 67.388 182.462 67.3275 182.955 67.1591C183.448 66.9907 183.898 66.7183 184.276 66.3603C184.882 65.6165 185.252 64.7097 185.341 63.755C185.49 62.6103 185.562 61.457 185.559 60.3027V55.3662H195.609V59.5686C195.657 62.2491 195.231 64.917 194.351 67.4493C193.55 69.6834 192.026 71.5857 190.019 72.8536C187.971 74.1711 185.083 74.8298 181.356 74.8298Z" fill="white"/>
<path d="M208.668 74.136V23.3192H219.663L226.817 55.4064L234.415 23.3192H245.031V74.136H237.497L236.69 39.6612L230.237 74.136H223.784L217.001 39.4515L216.275 74.136H208.668Z" fill="white"/>
<path d="M258.783 74.136V23.3192H278.594V30.3529H269.14V44.0654H278.562V51.3249H269.14V74.136H258.783Z" fill="white"/>
<path d="M292.266 74.136V23.3192H311.729V30.4739H302.623V43.9363H311.729V51.1958H302.623V67.1023H311.729V74.136H292.266Z" fill="white"/>
<path d="M338.751 74.8296C336.031 74.9255 333.331 74.3317 330.903 73.1035C328.791 71.9359 327.124 70.1043 326.16 67.8928C324.988 65.0784 324.359 62.068 324.305 59.02L333.234 57.4955C333.27 59.2615 333.491 61.0189 333.895 62.7385C334.126 63.9181 334.685 65.0086 335.509 65.8843C336.246 66.5877 337.232 66.9705 338.251 66.949C338.777 67.0113 339.311 66.9267 339.792 66.7046C340.273 66.4825 340.683 66.1316 340.977 65.6907C341.473 64.8104 341.724 63.8132 341.703 62.803C341.768 60.8973 341.229 59.0199 340.163 57.439C338.993 55.8326 337.639 54.3682 336.13 53.0752L330.814 48.4533C328.985 46.9251 327.426 45.1011 326.2 43.0571C324.942 40.7942 324.323 38.2319 324.41 35.6443C324.41 31.4607 325.633 28.2476 328.08 26.0052C330.526 23.7629 333.887 22.6444 338.162 22.6497C340.323 22.5694 342.473 22.9977 344.438 23.9C345.984 24.6581 347.297 25.8203 348.237 27.2636C349.156 28.66 349.812 30.2127 350.173 31.8451C350.522 33.4681 350.743 35.116 350.834 36.7736L341.962 38.0964C341.896 36.7297 341.758 35.3673 341.55 34.0149C341.432 33.0072 341.042 32.0507 340.421 31.2482C340.1 30.9009 339.705 30.6305 339.265 30.4573C338.825 30.2841 338.352 30.2125 337.88 30.248C337.351 30.2146 336.822 30.3215 336.348 30.5581C335.873 30.7946 335.47 31.1524 335.178 31.5951C334.595 32.4806 334.289 33.5195 334.299 34.5796C334.234 36.1476 334.663 37.6964 335.525 39.0079C336.501 40.3348 337.627 41.5447 338.88 42.6135L344.035 47.1386C346.156 48.9696 348.005 51.0935 349.528 53.4463C351.116 56.0847 351.901 59.1287 351.786 62.2061C351.821 64.4611 351.265 66.686 350.173 68.659C349.108 70.5647 347.529 72.1327 345.615 73.1842C343.507 74.3132 341.143 74.8799 338.751 74.8296Z" fill="white"/>
<path d="M370.088 74.1361V30.9984H362.272V23.2791H388.269V30.9984H380.542V74.1361H370.088Z" fill="white"/>
<path d="M187.704 110.28C187.696 110.949 187.648 111.617 187.559 112.281C187.465 113.043 187.279 113.791 187.003 114.507C186.748 115.17 186.364 115.776 185.873 116.29C185.632 116.539 185.34 116.734 185.018 116.86C184.695 116.987 184.348 117.043 184.002 117.024C183.553 117.05 183.104 116.96 182.7 116.762C182.296 116.564 181.95 116.265 181.695 115.894C181.153 115.083 180.778 114.173 180.59 113.216C180.366 112.154 180.234 111.075 180.195 109.99C180.154 108.909 180.122 108.046 180.09 107.409C178.098 107.74 176.121 108.03 174.186 108.28C174.129 108.925 174.008 109.716 173.831 110.7C173.656 111.631 173.386 112.542 173.024 113.418C172.673 114.255 172.179 115.025 171.564 115.693C171.289 115.999 170.952 116.242 170.575 116.406C170.197 116.57 169.789 116.652 169.378 116.645C169.079 116.658 168.782 116.599 168.511 116.473C168.24 116.346 168.003 116.156 167.821 115.919C167.429 115.403 167.139 114.817 166.966 114.192C166.771 113.52 166.652 112.827 166.611 112.127C166.571 111.426 166.555 110.837 166.555 110.361C166.553 108.794 166.677 107.23 166.926 105.683C167.179 104.145 167.469 102.612 167.797 101.085C167.967 100.278 168.184 99.3346 168.467 98.2537C168.749 97.1729 169.08 96.0517 169.483 94.9063C169.892 93.7431 170.366 92.604 170.903 91.4943C171.407 90.4245 172.026 89.413 172.75 88.4775C173.413 87.6201 174.221 86.8857 175.137 86.3077C176.028 85.7644 177.054 85.4847 178.098 85.5011C179.06 85.4765 180.01 85.7224 180.84 86.211C181.634 86.698 182.327 87.3334 182.881 88.0823C183.481 88.8953 183.969 89.7851 184.333 90.728C184.719 91.7055 185.047 92.7047 185.317 93.7205C185.575 94.7369 185.801 95.729 185.978 96.6969C186.156 97.6649 186.317 98.528 186.462 99.2781C186.817 101.08 187.121 102.903 187.374 104.747C187.607 106.582 187.718 108.431 187.704 110.28ZM179.638 100.165C179.638 99.8347 179.638 99.2862 179.574 98.5522C179.534 97.7859 179.442 97.0233 179.299 96.2694C179.182 95.5631 178.968 94.8763 178.662 94.2287C178.575 93.9779 178.414 93.7588 178.202 93.5993C177.989 93.4399 177.734 93.3473 177.468 93.3334C177.297 93.3514 177.133 93.4127 176.992 93.5115C176.851 93.6102 176.737 93.7432 176.662 93.898C176.385 94.3401 176.163 94.814 176 95.3096C175.791 95.9315 175.616 96.5642 175.476 97.2051C175.331 97.8988 175.194 98.5602 175.081 99.1975C174.968 99.8347 174.887 100.415 174.831 100.932C174.774 101.448 174.734 101.811 174.71 102.029C176.371 101.889 178.009 101.682 179.622 101.408L179.638 100.165Z" fill="#FDC332"/>
<path d="M208.394 91.5509C208.396 92.0626 208.347 92.5732 208.249 93.0754C208.166 93.5285 207.99 93.9595 207.733 94.3418C207.477 94.7064 207.133 95.0005 206.733 95.1968C206.25 95.4177 205.722 95.5226 205.192 95.5033C204.647 95.5442 204.104 95.3992 203.651 95.0919C203.326 94.8265 203.087 94.4697 202.966 94.0675C202.836 93.6443 202.773 93.2034 202.78 92.7608C202.78 92.293 202.78 91.8493 202.716 91.446C202.687 91.0881 202.58 90.7409 202.401 90.4297C202.301 90.2838 202.164 90.1677 202.003 90.0939C201.843 90.02 201.665 89.9911 201.49 90.0102C201.07 90.0102 200.731 90.3329 200.465 90.9701C200.182 91.6853 199.966 92.4252 199.82 93.1802C199.661 93.9795 199.551 94.7876 199.489 95.6001C199.433 96.4067 199.408 96.931 199.408 97.2133L200.449 97.0681C200.808 97.0248 201.169 97.0033 201.53 97.0036C201.937 97.0043 202.342 97.0475 202.74 97.1326C203.144 97.2093 203.535 97.3424 203.901 97.5279C204.253 97.6957 204.554 97.9547 204.772 98.278C205.008 98.6273 205.127 99.0426 205.111 99.4638C205.106 99.719 205.045 99.97 204.934 100.2C204.823 100.429 204.663 100.632 204.466 100.795C204.006 101.198 203.486 101.527 202.925 101.771C202.337 102.031 201.731 102.247 201.11 102.416C200.505 102.577 200.021 102.69 199.659 102.747C199.739 104.658 199.78 106.594 199.78 108.53C199.78 110.466 199.739 112.168 199.659 113.942C199.631 114.736 199.312 115.491 198.763 116.064C198.487 116.337 198.158 116.55 197.795 116.689C197.433 116.827 197.046 116.889 196.658 116.871C196.241 116.883 195.828 116.791 195.456 116.604C195.135 116.424 194.859 116.173 194.649 115.87C194.418 115.555 194.241 115.203 194.125 114.83C194.001 114.44 193.925 114.036 193.899 113.628C193.754 111.958 193.649 110.289 193.561 108.611C193.472 106.933 193.456 105.247 193.48 103.553C193.293 103.582 193.104 103.596 192.915 103.594H192.359C191.953 103.586 191.548 103.546 191.149 103.473C190.681 103.392 190.228 103.246 189.802 103.037C189.39 102.834 189.016 102.561 188.697 102.23C188.544 102.079 188.425 101.897 188.346 101.698C188.267 101.498 188.23 101.284 188.237 101.069C188.23 100.785 188.28 100.502 188.384 100.237C188.487 99.9728 188.643 99.7317 188.842 99.5283C189.257 99.1005 189.75 98.7556 190.294 98.5119C190.864 98.2479 191.466 98.0581 192.084 97.9473C192.714 97.8344 193.262 97.7537 193.698 97.6973V97.0358C193.708 95.5708 193.834 94.1089 194.077 92.664C194.302 91.1619 194.75 89.7019 195.408 88.3325C196.012 87.0407 196.909 85.9081 198.029 85.0254C199.252 84.117 200.75 83.6557 202.272 83.7186C203.247 83.6911 204.211 83.928 205.063 84.4043C205.828 84.8476 206.482 85.4601 206.975 86.1949C207.483 86.9535 207.849 87.798 208.055 88.6874C208.281 89.6252 208.394 90.5864 208.394 91.5509Z" fill="#FDC332"/>
<path d="M222.937 100.875C222.6 100.907 222.26 100.871 221.937 100.77C221.663 100.674 221.381 100.569 221.131 100.456L220.38 100.149C220.123 100.052 219.847 100.016 219.574 100.044C219.049 100.059 218.538 100.218 218.098 100.504C217.655 100.786 217.26 101.138 216.928 101.545C216.575 101.969 216.274 102.435 216.033 102.932C215.793 103.421 215.598 103.932 215.452 104.457C215.348 104.956 215.286 105.463 215.266 105.973C215.226 106.651 215.202 107.385 215.202 108.159C215.202 108.933 215.162 109.724 215.162 110.45C215.166 111.018 215.14 111.586 215.081 112.152C215.081 112.595 214.976 113.12 214.871 113.717C214.761 114.297 214.585 114.862 214.347 115.402C214.127 115.904 213.809 116.357 213.411 116.733C213 117.1 212.462 117.294 211.911 117.274C211.466 117.28 211.033 117.131 210.685 116.854C210.318 116.553 210.021 116.176 209.814 115.749C209.559 115.235 209.364 114.694 209.233 114.136C209.078 113.52 208.959 112.895 208.878 112.265C208.797 111.595 208.733 110.926 208.693 110.264C208.652 109.603 208.62 108.966 208.604 108.369C208.588 107.772 208.604 107.223 208.604 106.756C208.604 106.288 208.604 105.86 208.604 105.554C208.604 104.578 208.523 103.602 208.459 102.618C208.394 101.634 208.354 100.658 208.354 99.6815C208.354 99.0766 208.354 98.3909 208.434 97.6489C208.484 96.9284 208.639 96.2192 208.894 95.5436C209.133 94.9276 209.511 94.3753 209.999 93.9304C210.562 93.4597 211.284 93.223 212.016 93.2689C212.462 93.2622 212.893 93.4234 213.226 93.7206C213.565 94.0418 213.838 94.4252 214.032 94.8499C214.246 95.3 214.406 95.7738 214.508 96.2615C214.594 96.7031 214.645 97.1508 214.661 97.6005C215.26 96.6025 216.021 95.7111 216.912 94.9628C217.838 94.2522 218.971 93.8641 220.138 93.8578C220.802 93.8306 221.467 93.893 222.115 94.0433C222.75 94.189 223.356 94.4427 223.905 94.7934C224.445 95.1396 224.9 95.6028 225.236 96.1485C225.592 96.7384 225.787 97.4116 225.801 98.1006C225.849 98.4811 225.801 98.8678 225.66 99.2246C225.519 99.5814 225.29 99.8968 224.994 100.141C224.408 100.605 223.685 100.863 222.937 100.875Z" fill="#FDC332"/>
<path d="M233.673 101.545V102.771C233.673 103.198 233.673 103.578 233.633 103.997C233.593 104.416 233.633 105.102 233.633 105.892C233.633 106.683 233.633 107.506 233.544 108.449C233.456 109.393 233.399 110.297 233.278 111.24C233.165 112.116 232.962 112.979 232.673 113.813C232.44 114.515 232.064 115.161 231.568 115.709C231.35 115.953 231.085 116.151 230.788 116.289C230.491 116.428 230.169 116.505 229.842 116.516C229.585 116.529 229.33 116.478 229.097 116.368C228.865 116.259 228.664 116.093 228.511 115.886C228.109 115.371 227.806 114.786 227.616 114.16C227.366 113.389 227.193 112.594 227.1 111.789C226.987 110.918 226.906 110.071 226.849 109.248C226.793 108.425 226.761 107.635 226.761 106.981V103.553C226.761 102.747 226.761 101.851 226.849 100.908C226.938 99.9639 227.003 99.004 227.156 98.0361C227.295 97.1297 227.519 96.2385 227.825 95.3742C228.067 94.6483 228.457 93.9808 228.971 93.4142C229.199 93.1686 229.476 92.9747 229.785 92.8453C230.094 92.7159 230.427 92.6541 230.762 92.664C231.125 92.664 231.48 92.7711 231.783 92.972C232.086 93.1729 232.322 93.4585 232.464 93.7933C232.878 94.621 233.171 95.5038 233.335 96.4148C233.526 97.3964 233.639 98.3916 233.673 99.3912C233.657 100.343 233.673 101.069 233.673 101.545ZM233.343 87.3887C233.35 87.76 233.24 88.1241 233.028 88.4293C232.811 88.7453 232.538 89.0187 232.222 89.2359C231.892 89.4714 231.527 89.6537 231.141 89.7763C230.793 89.8959 230.428 89.9585 230.06 89.9618C229.543 89.973 229.035 89.8298 228.6 89.5505C228.394 89.4068 228.229 89.2126 228.12 88.9866C228.011 88.7605 227.963 88.5102 227.979 88.2599C227.971 87.8684 228.081 87.4837 228.293 87.1548C228.494 86.8384 228.754 86.5644 229.06 86.3482C229.379 86.1353 229.73 85.9747 230.1 85.8723C230.467 85.7626 230.847 85.7055 231.229 85.7029C231.738 85.7003 232.239 85.831 232.681 86.082C232.906 86.2128 233.088 86.4058 233.205 86.6376C233.322 86.8695 233.37 87.1303 233.343 87.3887Z" fill="#FDC332"/>
<path d="M251.516 100.456C251.518 100.605 251.504 100.753 251.475 100.899C251.452 101.049 251.412 101.195 251.354 101.335C251.116 101.968 250.712 102.525 250.185 102.948C249.659 103.382 248.995 103.611 248.313 103.593C247.818 103.614 247.33 103.466 246.93 103.173C246.529 102.88 246.241 102.459 246.111 101.98C246.051 101.829 246.021 101.667 246.023 101.504C246.025 101.315 246.011 101.126 245.982 100.94V99.7379C245.948 99.415 245.849 99.1023 245.692 98.8183C245.611 98.7075 245.504 98.6189 245.38 98.5611C245.256 98.5032 245.119 98.4779 244.982 98.4876C244.702 98.5175 244.434 98.6145 244.199 98.7704C243.964 98.9262 243.771 99.1364 243.635 99.383C243.169 100.037 242.792 100.751 242.514 101.504C242.179 102.321 241.91 103.162 241.707 104.021C241.538 104.703 241.44 105.4 241.417 106.102C241.417 106.513 241.417 107.022 241.498 107.619C241.552 108.204 241.666 108.782 241.836 109.345C241.981 109.859 242.213 110.345 242.522 110.78C242.645 110.969 242.814 111.123 243.013 111.229C243.212 111.334 243.434 111.388 243.659 111.385C244.133 111.385 244.594 111.233 244.974 110.95C245.396 110.644 245.793 110.304 246.16 109.933C246.525 109.595 246.921 109.248 247.346 108.893C247.754 108.536 248.279 108.341 248.822 108.344C249.13 108.337 249.436 108.4 249.716 108.53C249.996 108.66 250.242 108.854 250.435 109.095C250.831 109.576 251.045 110.181 251.04 110.805C251.043 111.737 250.783 112.651 250.29 113.442C249.797 114.258 249.164 114.979 248.418 115.572C247.664 116.17 246.82 116.647 245.918 116.983C245.083 117.313 244.194 117.488 243.296 117.5C241.94 117.542 240.606 117.149 239.489 116.378C238.447 115.63 237.587 114.657 236.972 113.531C236.325 112.353 235.863 111.082 235.601 109.764C235.33 108.491 235.189 107.194 235.182 105.892C235.199 104.343 235.394 102.8 235.763 101.295C236.14 99.6855 236.743 98.1377 237.553 96.6969C238.331 95.3138 239.389 94.1079 240.659 93.1559C241.966 92.2029 243.55 91.7069 245.168 91.7443C246.154 91.7168 247.128 91.9625 247.983 92.4542C248.763 92.9173 249.429 93.5483 249.935 94.3013C250.459 95.0885 250.854 95.9545 251.104 96.8663C251.36 97.7721 251.493 98.7081 251.5 99.6492V100.02C251.523 100.164 251.528 100.31 251.516 100.456Z" fill="#FDC332"/>
<path d="M271.536 110.571C271.536 111.071 271.536 111.724 271.471 112.531C271.431 113.323 271.312 114.109 271.117 114.878C270.945 115.59 270.636 116.262 270.205 116.854C270.001 117.121 269.735 117.334 269.43 117.474C269.125 117.615 268.79 117.679 268.455 117.661C268.009 117.687 267.564 117.61 267.152 117.437C266.741 117.264 266.375 116.998 266.083 116.661C265.51 115.961 265.222 115.071 265.277 114.168C264.383 114.947 263.363 115.566 262.26 115.999C261.167 116.436 260.001 116.661 258.824 116.661C258.026 116.662 257.241 116.462 256.541 116.08C255.819 115.695 255.169 115.187 254.621 114.58C254.067 113.972 253.617 113.277 253.29 112.523C252.968 111.81 252.798 111.038 252.79 110.256C252.77 108.983 253.205 107.745 254.016 106.764C254.868 105.739 255.891 104.871 257.041 104.198C258.24 103.491 259.518 102.925 260.848 102.513C262.023 102.145 263.226 101.875 264.446 101.706C264.446 101.569 264.446 101.448 264.446 101.335C264.455 101.209 264.455 101.082 264.446 100.956C264.481 100.197 264.227 99.4537 263.736 98.8748C263.483 98.603 263.174 98.3898 262.829 98.2505C262.485 98.1111 262.115 98.0489 261.744 98.0682C261.128 98.0536 260.517 98.1748 259.953 98.4231C259.461 98.6579 258.987 98.9275 258.533 99.2298C258.09 99.5201 257.646 99.7863 257.202 100.036C256.742 100.275 256.229 100.397 255.71 100.391C255.133 100.405 254.573 100.198 254.145 99.8105C253.935 99.6226 253.768 99.3909 253.657 99.1317C253.545 98.8726 253.492 98.5922 253.5 98.3102C253.493 97.4141 253.776 96.5398 254.307 95.8178C254.857 95.0588 255.55 94.4148 256.347 93.9222C257.176 93.3999 258.071 92.9928 259.009 92.7123C259.862 92.4385 260.751 92.2917 261.647 92.2767C262.405 92.2764 263.161 92.3685 263.897 92.551C264.64 92.7164 265.354 92.9881 266.019 93.3576C266.683 93.7273 267.291 94.1889 267.826 94.7288C268.377 95.2741 268.823 95.9168 269.14 96.6244C269.646 97.6585 270.052 98.739 270.35 99.8508C270.655 101.013 270.889 102.193 271.052 103.384C271.221 104.594 271.334 105.804 271.391 107.006C271.447 108.207 271.536 109.433 271.536 110.571ZM264.873 109.24L264.752 106.409H264.583C264.529 106.401 264.475 106.401 264.422 106.409C263.958 106.427 263.501 106.519 263.067 106.683C262.519 106.864 261.995 107.113 261.51 107.425C261.039 107.722 260.611 108.08 260.235 108.49C259.917 108.813 259.732 109.246 259.719 109.7C259.699 109.86 259.728 110.022 259.801 110.166C259.874 110.31 259.989 110.428 260.13 110.506C260.431 110.646 260.759 110.715 261.09 110.708C261.768 110.695 262.435 110.532 263.042 110.232C263.669 109.933 264.281 109.602 264.873 109.24Z" fill="#FDC332"/>
</g>
<defs>
<clipPath id="clip0_39_520">
<rect width="388.135" height="140.875" fill="white"/>
</clipPath>
</defs>
</svg>
