<svg width="22" height="16" viewBox="0 0 22 16" fill="none" xmlns="http://www.w3.org/2000/svg">
<path d="M2 3.5H20C20.828 3.5 21.5 2.828 21.5 2C21.5 1.172 20.828 0.5 20 0.5H2C1.172 0.5 0.5 1.172 0.5 2C0.5 2.828 1.172 3.5 2 3.5ZM20 6.5H2C1.172 6.5 0.5 7.172 0.5 8C0.5 8.828 1.172 9.5 2 9.5H20C20.828 9.5 21.5 8.828 21.5 8C21.5 7.172 20.828 6.5 20 6.5ZM20 12.5H2C1.172 12.5 0.5 13.172 0.5 14C0.5 14.828 1.172 15.5 2 15.5H20C20.828 15.5 21.5 14.828 21.5 14C21.5 13.172 20.828 12.5 20 12.5Z" fill="white"/>
</svg>
