<svg width="22" height="16" viewBox="0 0 22 16" fill="none" xmlns="http://www.w3.org/2000/svg">
<path d="M20.3333 0H1.66659C1.31296 0 0.973825 0.140476 0.723776 0.390524C0.473728 0.640573 0.333252 0.979711 0.333252 1.33333V14.6667C0.333252 15.0203 0.473728 15.3594 0.723776 15.6095C0.973825 15.8595 1.31296 16 1.66659 16H20.3333C20.6869 16 21.026 15.8595 21.2761 15.6095C21.5261 15.3594 21.6666 15.0203 21.6666 14.6667V1.33333C21.6666 0.979711 21.5261 0.640573 21.2761 0.390524C21.026 0.140476 20.6869 0 20.3333 0ZM19.3066 14.6667H2.77325L7.43992 9.84L6.47992 8.91333L1.66659 13.8933V2.34667L9.95325 10.5933C10.2031 10.8417 10.541 10.9811 10.8933 10.9811C11.2455 10.9811 11.5834 10.8417 11.8333 10.5933L20.3333 2.14V13.8067L15.4266 8.9L14.4866 9.84L19.3066 14.6667Z" fill="#121121"/>
</svg>
