<svg width="70" height="70" viewBox="0 0 70 70" fill="none" xmlns="http://www.w3.org/2000/svg">
<circle cx="35" cy="34.9999" r="28.5833" fill="#121121" stroke="#F8F8FF" stroke-width="1.16667"/>
<circle cx="35" cy="35.0001" r="28.5833" fill="#F8F8FF"/>
<path fill-rule="evenodd" clip-rule="evenodd" d="M35 63C50.464 63 63 50.464 63 35C63 19.536 50.464 7 35 7C19.536 7 7 19.536 7 35C7 50.464 19.536 63 35 63ZM33.4415 25.0878C32.3675 24.3718 30.9865 24.3051 29.8485 24.9141C28.7104 25.5232 28 26.7092 28 28V42C28 43.2908 28.7104 44.4768 29.8485 45.0859C30.9865 45.6949 32.3675 45.6282 33.4415 44.9122L43.9415 37.9122C44.9151 37.2631 45.5 36.1702 45.5 35C45.5 33.8298 44.9151 32.737 43.9415 32.0878L33.4415 25.0878Z" fill="#121121"/>
</svg>
