<svg width="24" height="19" viewBox="0 0 24 19" fill="none" xmlns="http://www.w3.org/2000/svg">
<path d="M21.0151 4.73173C21.9032 4.06561 22.7026 3.26627 23.3243 2.3337C22.5249 2.68896 21.5924 2.95541 20.6598 3.04423C21.6368 2.46693 22.3473 1.57877 22.7026 0.46857C21.8144 1.00146 20.793 1.40114 19.7716 1.62318C18.8835 0.69061 17.6845 0.157715 16.3522 0.157715C13.7766 0.157715 11.6894 2.24489 11.6894 4.82054C11.6894 5.17581 11.7338 5.53107 11.8226 5.88633C7.95914 5.66429 4.49532 3.79916 2.18611 1.00146C1.78644 1.66758 1.5644 2.46693 1.5644 3.35508C1.5644 4.95377 2.36374 6.37482 3.65157 7.21857C2.89664 7.17416 2.1417 6.99653 1.51999 6.64127V6.68568C1.51999 8.95048 3.11868 10.8156 5.25026 11.2597C4.89499 11.3485 4.45091 11.4373 4.05124 11.4373C3.74039 11.4373 3.47394 11.3929 3.16309 11.3485C3.74039 13.2136 5.4723 14.5459 7.51506 14.5903C5.91638 15.8337 3.91802 16.5886 1.74203 16.5886C1.34236 16.5886 0.987099 16.5442 0.631836 16.4998C2.6746 17.8321 5.11703 18.587 7.78151 18.587C16.3522 18.587 21.0151 11.5261 21.0151 5.35344C21.0151 5.1314 21.0151 4.95377 21.0151 4.73173Z" fill="#121121"/>
</svg>
