<svg width="170" height="42" viewBox="0 0 170 42" fill="none" xmlns="http://www.w3.org/2000/svg">
<g clip-path="url(#clip0_255_125)">
<path d="M27.8338 18.3796C27.7423 17.5692 27.582 16.7618 27.4354 16.0703C27.2889 15.379 27.0646 14.5945 26.7944 13.8268C26.2937 12.3439 25.6325 10.92 24.8224 9.58075C24.0139 8.21931 23.0084 6.98495 21.8386 5.91773C20.6093 4.86011 19.1543 4.09787 17.585 3.6894C16.5427 3.41869 15.4705 3.27923 14.3936 3.27427C14.0777 3.27427 13.7602 3.288 13.4458 3.31242C13.4458 3.13079 13.4305 2.96749 13.4138 2.81334C13.3752 2.41672 13.2677 2.02988 13.0963 1.67017C12.8992 1.25703 12.5794 0.914826 12.1806 0.690314C11.7991 0.493233 11.3766 0.388665 10.9473 0.385063H10.8374C10.4196 0.382234 10.0088 0.492454 9.6485 0.704051C9.27685 0.933652 8.96921 1.25336 8.75409 1.63353C8.5588 1.97074 8.41574 2.33559 8.32978 2.71565C8.28086 2.91116 8.24718 3.11017 8.22905 3.31089C8.10705 3.32015 7.98573 3.33697 7.8658 3.36126C7.57905 3.41743 7.30057 3.50974 7.03705 3.63599C6.74464 3.77105 6.48244 3.96364 6.2661 4.20227C6.04977 4.4409 5.88372 4.72067 5.77788 5.02488C5.68024 5.31363 5.62874 5.61598 5.62526 5.92079C5.61361 6.20615 5.63048 6.49196 5.67563 6.77397C5.7261 7.13518 5.88588 7.4723 6.1335 7.74008C6.40004 7.99766 6.74057 8.16526 7.10725 8.21933C7.39635 8.26621 7.68895 8.28817 7.9818 8.28495C8.15579 8.28495 8.32673 8.28495 8.49767 8.27428L8.70371 8.26664L10.172 8.20559C10.7443 8.17811 11.2236 8.1598 11.6982 8.1598C12.1365 8.15774 12.5745 8.1776 13.0108 8.21933C13.9054 8.29095 14.7756 8.54605 15.5673 8.96871C16.3445 9.40999 17.0204 10.0096 17.5514 10.7285C18.2184 11.6091 18.7724 12.6577 19.299 14.0603H19.2883C19.1265 13.9337 18.9601 13.8054 18.7861 13.6757C18.0983 13.1677 17.3756 12.7087 16.6235 12.302C15.8622 11.8879 15.0622 11.5495 14.2348 11.2917C13.4312 11.0382 12.5944 10.905 11.7516 10.8964H11.599C9.83656 10.8823 8.10241 11.3398 6.57612 12.2212C5.14144 13.056 3.87159 14.3381 2.89937 15.93C2.01019 17.4141 1.35341 19.0257 0.951871 20.7087C0.544046 22.3732 0.321387 24.0776 0.28795 25.7911C0.234893 27.5244 0.440658 29.2559 0.898451 30.9284C1.35751 32.617 2.11531 34.2096 3.13594 35.6308C4.16632 37.0595 5.48033 38.2603 6.99584 39.158C8.50252 40.0332 10.1586 40.6211 11.8799 40.8919C12.2325 40.9575 12.588 40.9987 12.9314 41.0445L13.1695 41.0719L13.5114 41.0979C13.8167 41.1223 14.1372 41.1467 14.4439 41.1467C14.6424 41.1559 14.8377 41.1605 15.0239 41.1605C15.7132 41.1683 16.4011 41.0961 17.0737 40.9452C17.5187 40.8452 17.9524 40.6999 18.3679 40.5118C18.8112 40.3168 19.2171 40.0462 19.5676 39.7121C19.7717 39.5173 19.9374 39.2858 20.0559 39.0298C20.1278 38.8694 20.1697 38.6971 20.1797 38.5215C20.1904 38.2949 20.1307 38.0704 20.0087 37.879C19.9003 37.7176 19.7562 37.5833 19.5875 37.4868C19.4446 37.4042 19.2903 37.3436 19.1296 37.3067C18.8788 37.2529 18.6228 37.2283 18.3665 37.2335C18.0932 37.2335 17.8322 37.2457 17.5789 37.2594C17.4171 37.267 17.2569 37.2762 17.0935 37.2807C16.77 37.2929 16.483 37.2976 16.1992 37.2976H15.8817C15.0877 37.2924 14.2958 37.219 13.5145 37.0778C12.7706 36.9384 12.0557 36.6737 11.4006 36.2947C10.758 35.9142 10.1893 35.421 9.7217 34.8387C9.25001 34.2403 8.86468 33.5785 8.57704 32.873C8.50988 32.7066 8.44426 32.5325 8.37862 32.3387V32.3311L11.19 32.3494C11.2496 32.3495 11.307 32.3268 11.3505 32.286C11.3939 32.2451 11.42 32.1892 11.4235 32.1296C11.4387 31.8656 11.4525 31.568 11.4663 31.2749V31.1971C11.5013 30.4614 11.5289 29.7762 11.5289 29.7426V29.7044L11.5608 28.549L11.5685 28.5414H14.9049C15.0102 29.0192 15.1323 29.4892 15.2651 29.9486C15.3673 30.292 15.462 30.5943 15.549 30.8643C15.581 30.962 15.613 31.0582 15.6466 31.1544L15.6787 31.2444C15.8222 31.6641 15.9442 31.9785 16.0465 32.2151C16.0679 32.2638 16.103 32.3051 16.1474 32.3344C16.1918 32.3636 16.2436 32.3795 16.2968 32.3799L20.1766 32.4059C20.206 32.4061 20.2351 32.4005 20.2623 32.3893C20.2895 32.3782 20.3142 32.3619 20.3352 32.3411C20.356 32.3205 20.3726 32.2958 20.3838 32.2687C20.3952 32.2415 20.4009 32.2124 20.4009 32.183V30.8094L20.3216 28.6651V28.6574H21.6174V32.177C21.6174 32.2355 21.6404 32.2917 21.6815 32.3334C21.7227 32.3752 21.7786 32.399 21.8372 32.3997L25.2743 32.4227C25.4 32.4223 25.5227 32.384 25.6262 32.3126C25.7297 32.2412 25.8093 32.1402 25.8543 32.0228C27.0599 28.9397 27.759 25.9178 27.933 23.0271C28.0468 21.4782 28.0136 19.9221 27.8338 18.3796Z" fill="#1B2644"/>
<path d="M26.5765 22.9415C26.4076 25.7032 25.847 28.4268 24.9114 31.0306C24.8966 31.072 24.8695 31.1077 24.8337 31.1332C24.798 31.1586 24.7553 31.1723 24.7114 31.1726L23.1454 31.1832C23.0957 31.1832 23.048 31.1635 23.0127 31.1282C22.9776 31.0931 22.9578 31.0453 22.9578 30.9955V30.2324C24.6214 28.1658 24.9205 23.3322 24.9633 22.3752C24.9719 22.3104 24.9646 22.2445 24.9417 22.1833C24.9187 22.122 24.8811 22.0674 24.832 22.0242C24.763 21.9702 24.6784 21.9401 24.5908 21.9387C24.1559 21.9387 24.0567 22.5752 23.875 23.732C23.6599 25.1057 23.3347 27.1921 22.2908 27.3157H20.3066L20.1662 23.5215C20.1616 23.412 20.1151 23.3084 20.0365 23.232C19.9579 23.1557 19.853 23.1123 19.7435 23.1109H19.7343C19.6228 23.1092 19.515 23.1512 19.4339 23.2279C19.353 23.3047 19.3052 23.4099 19.3009 23.5215L19.0246 31.0215C19.0193 31.0702 18.9964 31.1153 18.9602 31.1482C18.9238 31.1812 18.8767 31.1996 18.8277 31.2L17.2007 31.2107L17.1336 31.0672L16.9397 30.6338C16.8161 30.3469 16.6955 30.0523 16.5826 29.7593C16.3536 29.1686 16.1537 28.5657 15.9843 27.9689C15.8149 27.3722 15.6714 26.7479 15.5523 26.1207C15.4333 25.5209 15.3356 24.8875 15.2594 24.2342C15.2465 24.1332 15.197 24.0404 15.1201 23.9738C15.0432 23.907 14.9444 23.8709 14.8427 23.8725C14.7888 23.8735 14.7357 23.8852 14.6864 23.907C14.6372 23.9287 14.5928 23.9601 14.5558 23.9992C14.5183 24.0381 14.489 24.084 14.4693 24.1343C14.4496 24.1846 14.4401 24.2383 14.4413 24.2922C14.4565 24.9714 14.4962 25.6368 14.5603 26.2764C14.5923 26.5617 14.6336 26.87 14.687 27.2074H12.0832C12.0832 27.2074 12.074 27.2074 12.0832 27.1982C12.184 27.0378 12.2762 26.8723 12.3595 26.7022C12.6004 26.2208 12.7691 25.7065 12.86 25.1759C12.9546 24.6481 12.9721 24.1093 12.9119 23.5764C12.8504 23.0633 12.7379 22.5577 12.5762 22.0669C12.4072 21.5658 12.1654 21.0922 11.8588 20.6613C11.6912 20.4448 11.5053 20.2432 11.3033 20.0584L11.2087 19.976C11.0482 19.8238 10.8739 19.6868 10.6882 19.5669C10.2554 19.2705 9.77401 19.0525 9.26573 18.9228C8.85942 18.8134 8.44106 18.7549 8.0203 18.7488C7.93788 18.7488 7.85394 18.7488 7.76999 18.758C7.69999 18.7602 7.63252 18.7847 7.57755 18.8282C7.52259 18.8716 7.48304 18.9315 7.46475 18.9991C7.45476 19.041 7.4537 19.0844 7.46164 19.1265C7.46958 19.1688 7.48634 19.2089 7.51083 19.2442C7.53532 19.2794 7.56699 19.3092 7.60376 19.3314C7.64052 19.3536 7.68157 19.3678 7.7242 19.3731C8.5799 19.4958 9.38353 19.8577 10.0426 20.417C10.6647 20.9583 11.1013 21.6811 11.2911 22.4836C11.4018 22.8883 11.4723 23.3029 11.5017 23.7214C11.5277 24.1275 11.5015 24.5353 11.4239 24.9347C11.3496 25.3354 11.2266 25.7255 11.0575 26.0962C10.9733 26.281 10.8759 26.4596 10.766 26.6305C10.6684 26.7923 10.557 26.9455 10.4333 27.0883L10.4027 27.1234C10.2909 27.2491 10.2319 27.4131 10.2379 27.5813L10.2975 29.6982C10.3096 30.1561 10.3234 30.6338 10.3539 31.1069C10.3561 31.1282 10.3537 31.1497 10.347 31.17C10.3403 31.1904 10.3295 31.2091 10.315 31.2249C10.3006 31.2407 10.283 31.2533 10.2635 31.2619C10.2439 31.2705 10.2227 31.2749 10.2013 31.2748L8.08441 31.2886C8.0203 31.0444 7.96688 30.8215 7.92414 30.6124C7.60646 29.0182 7.43581 27.3981 7.41437 25.7726C7.41298 25.6996 7.38733 25.629 7.34147 25.5721C7.2956 25.5152 7.23212 25.4752 7.16102 25.4583C7.13587 25.4533 7.11032 25.4508 7.08471 25.4506C7.01058 25.4506 6.93863 25.4758 6.88047 25.5217C6.82232 25.5676 6.78135 25.6319 6.76419 25.704C6.37573 27.3953 6.31408 29.1452 6.58256 30.8596C6.71576 31.7311 6.94719 32.5846 7.27243 33.404C7.59885 34.2485 8.05509 35.0368 8.62469 35.7406C9.20573 36.4587 9.9205 37.0574 10.7294 37.5035C11.5252 37.9347 12.3878 38.2288 13.2813 38.3734C14.0562 38.4885 14.8392 38.5395 15.6226 38.526H15.8866C16.3613 38.526 16.8405 38.4894 17.3029 38.4574C17.6815 38.4314 18.0371 38.407 18.382 38.3994H18.4889C18.6114 38.3952 18.734 38.4064 18.8537 38.4329C18.9391 38.4558 18.9803 38.4879 18.9895 38.5077C18.9942 38.52 18.9942 38.5336 18.9895 38.5459C18.9311 38.6678 18.8514 38.7784 18.7544 38.8725C18.208 39.4158 17.4037 39.6799 16.8252 39.8066C16.2632 39.9282 15.6893 39.9865 15.1144 39.9806C14.9159 39.9806 14.7114 39.9806 14.4901 39.9638C13.6858 39.9412 12.8847 39.8554 12.0939 39.7073C10.528 39.4289 9.02736 38.8627 7.66774 38.0377C6.32867 37.2021 5.17165 36.1052 4.26572 34.8127C3.35751 33.5118 2.68156 32.0633 2.26785 30.5315C1.84478 28.9905 1.63929 27.3981 1.65734 25.8002C1.66207 24.183 1.84117 22.5712 2.19154 20.9925C2.5318 19.4257 3.11309 17.9212 3.91468 16.5327C4.69874 15.1645 5.80863 14.0111 7.14576 13.1749C8.50352 12.3709 10.0519 11.945 11.6299 11.9417H11.81C13.144 11.9417 14.5984 12.36 16.1338 13.1826C17.5516 13.9521 18.8579 14.9113 20.0166 16.0336C20.0646 16.0854 20.1228 16.1266 20.1873 16.155C20.2519 16.1833 20.3216 16.1982 20.3921 16.1984C20.429 16.1982 20.4659 16.1941 20.502 16.1863C20.5674 16.1717 20.6294 16.1442 20.6843 16.1056C20.739 16.0669 20.7857 16.0178 20.8214 15.9611C20.8572 15.9044 20.8813 15.8411 20.8926 15.775C20.9038 15.7089 20.9017 15.6411 20.8866 15.5758V15.5559C20.6734 14.5732 20.382 13.6091 20.0152 12.6729C19.647 11.7088 19.1528 10.7979 18.5453 9.96373C17.9151 9.0937 17.1026 8.37176 16.1644 7.84834C15.2245 7.34414 14.1903 7.04014 13.1271 6.95548C12.6595 6.91013 12.1898 6.88873 11.7199 6.89138C11.1675 6.89138 10.618 6.9158 10.1021 6.94022L8.56518 7.02417C8.33776 7.03638 8.1073 7.04706 7.88141 7.04706C7.69042 7.04979 7.49952 7.03703 7.3106 7.0089C6.98397 6.9509 6.89393 6.85628 6.8283 6.53424C6.79468 6.33257 6.78088 6.1281 6.78709 5.92374C6.78488 5.73707 6.81165 5.5512 6.86645 5.37276C6.91981 5.21335 7.0055 5.06668 7.11817 4.94193C7.23084 4.81719 7.36805 4.71705 7.52121 4.64778C7.69751 4.56113 7.88423 4.49752 8.07677 4.45853C8.18971 4.43411 8.53465 4.36085 8.71627 4.33795C8.82123 4.33786 8.92317 4.30287 9.00605 4.23849C9.08894 4.17411 9.14808 4.08401 9.17415 3.98234L9.19246 3.89229C9.29195 3.31541 9.49573 2.76149 9.79382 2.25767C10.0686 1.82117 10.4257 1.59985 10.853 1.59985H10.9018C11.4498 1.59985 11.8328 1.80132 12.042 2.18746C12.3045 2.66823 12.3747 3.34131 12.4068 3.86635V3.89687C12.4107 4.02643 12.4651 4.14932 12.5583 4.2394C12.6515 4.32948 12.7762 4.37962 12.9059 4.37917H12.9593C13.0905 4.37917 13.2233 4.37917 13.356 4.37917C13.9443 4.37906 14.5318 4.42036 15.1144 4.50279C15.8269 4.59376 16.5301 4.74697 17.216 4.96066C17.8945 5.16858 18.5512 5.44152 19.1772 5.77569C19.7934 6.11188 20.3694 6.51689 20.8943 6.98295C21.9537 7.96024 22.8644 9.08738 23.5973 10.3285C24.3501 11.5809 24.9641 12.9114 25.4288 14.2968C26.3533 17.0801 26.7427 20.0133 26.5765 22.9415Z" fill="white"/>
<path d="M10.8015 4.84039C11.0805 4.75556 11.2267 4.42332 11.1278 4.0983C11.029 3.77329 10.7227 3.57859 10.4436 3.66342C10.1646 3.74825 10.0185 4.0805 10.1173 4.4055C10.2161 4.73052 10.5224 4.92523 10.8015 4.84039Z" fill="#1B2644"/>
<path d="M20.8589 15.499C21.2649 17.9761 18.5024 17.4282 17.6538 19.0093C17.2493 19.7572 15.9199 22.1764 14.7005 21.4713C12.5073 20.2014 16.0085 15.3936 15.1584 15.1633C14.1083 14.8762 12.6584 18.779 11.1581 18.2402C9.10066 17.5014 10.9398 14.5161 10.3125 14.1192C9.08081 13.3561 8.22306 17.4023 6.65865 17.4023C5.77036 17.4023 4.92483 16.366 4.85461 15.3418C4.85442 15.3323 4.85102 15.3231 4.845 15.3157C4.83896 15.3083 4.83063 15.3032 4.82133 15.301C4.81203 15.299 4.80229 15.3 4.79367 15.3041C4.78503 15.3081 4.77802 15.315 4.77372 15.3235C2.58966 19.0293 8.07501 20.1006 7.88881 21.7735C7.65834 23.8506 4.50357 23.3119 4.50357 24.5436C4.50357 25.7752 6.67086 27.4358 3.60462 29.7328C3.59483 29.7406 3.58293 29.745 3.57051 29.7458C3.55809 29.7465 3.54574 29.7434 3.53511 29.737C3.52449 29.7305 3.5161 29.7209 3.51106 29.7096C3.50603 29.6981 3.50459 29.6855 3.50693 29.6733C3.65192 29.0155 4.00906 26.5186 1.35034 25.3723L0.883301 24.8351C0.883301 24.8351 1.18855 11.3552 11.4022 11.3552C16.6297 11.3537 20.8589 15.499 20.8589 15.499Z" fill="#1B2644"/>
<path d="M40.6899 32.4546C45.1157 32.4546 48.1958 30.3314 48.4052 25.8159H42.2449C42.0954 26.6233 41.5272 27.0719 40.7198 27.0719C40.1815 27.0719 39.7329 26.8326 39.404 26.3542C39.0751 25.8757 38.8956 25.1879 38.8956 24.3805C38.8956 23.5432 39.0751 22.9152 39.4339 22.4068C39.7928 21.8984 40.2712 21.6293 40.8693 21.6293C41.7066 21.6293 42.2748 22.048 42.4542 22.8853H48.6145C48.4052 18.3698 45.2952 16.2466 40.8394 16.2466C37.849 16.2466 35.4567 17.2932 34.0511 19.3266C33.1541 20.6126 32.6157 22.3171 32.6157 24.3506C32.6157 26.414 33.1241 28.1185 34.0511 29.4343C35.4567 31.4379 37.7892 32.4546 40.6899 32.4546Z" fill="#1B2644"/>
<path d="M58.0709 32.4546C61.0911 32.4546 63.5732 31.2286 65.0086 29.1353C65.9057 27.8195 66.4141 26.2046 66.4141 24.3506C66.4141 22.4966 65.9057 20.8817 65.0086 19.566C63.5732 17.4726 61.0911 16.2466 58.0709 16.2466C55.0505 16.2466 52.5685 17.4726 51.1331 19.566C50.2359 20.8817 49.7275 22.4966 49.7275 24.3506C49.7275 26.2046 50.2359 27.8195 51.1331 29.1353C52.5685 31.2286 55.0505 32.4546 58.0709 32.4546ZM58.0709 27.0719C57.4129 27.0719 56.8747 26.7728 56.5158 26.2346C56.1869 25.7561 56.0075 25.1281 56.0075 24.3506C56.0075 23.5731 56.1869 22.9451 56.5158 22.4666C56.8747 21.9284 57.4129 21.6293 58.0709 21.6293C58.7287 21.6293 59.267 21.9284 59.6259 22.4666C59.9548 22.9451 60.1342 23.5731 60.1342 24.3506C60.1342 25.1281 59.9548 25.7561 59.6259 26.2346C59.267 26.7728 58.7287 27.0719 58.0709 27.0719Z" fill="#1B2644"/>
<path d="M74.9273 31.9762V23.4834C74.9273 22.3769 75.3759 21.9284 76.1833 21.9284C76.8412 21.9284 77.1402 22.3171 77.1402 23.1544V31.9762H83.4202V23.4834C83.4202 22.4368 83.9285 21.9284 84.6761 21.9284C85.334 21.9284 85.633 22.3171 85.633 23.1544V31.9762H91.9129V21.8088C91.9129 18.2202 90.3579 16.2466 87.5469 16.2466C85.2144 16.2466 83.2108 17.5922 82.5529 20.6724H81.8053C81.8053 17.7418 80.3998 16.2466 78.5158 16.2466C76.3926 16.2466 74.9273 17.7118 74.2096 20.6724H73.462L74.9273 16.725H68.6475V31.9762H74.9273Z" fill="#1B2644"/>
<path d="M101.182 31.9762V23.4834C101.182 22.3769 101.632 21.9284 102.439 21.9284C103.096 21.9284 103.396 22.3171 103.396 23.1544V31.9762H109.675V23.4834C109.675 22.4368 110.184 21.9284 110.931 21.9284C111.589 21.9284 111.888 22.3171 111.888 23.1544V31.9762H118.168V21.8088C118.168 18.2202 116.613 16.2466 113.803 16.2466C111.47 16.2466 109.466 17.5922 108.808 20.6724H108.06C108.06 17.7418 106.655 16.2466 104.771 16.2466C102.648 16.2466 101.182 17.7118 100.465 20.6724H99.7174L101.182 16.725H94.9023V31.9762H101.182Z" fill="#1B2644"/>
<path d="M127.016 32.4239C129.648 32.4239 131.532 31.7361 132.729 30.54C133.536 29.7325 133.955 28.6859 133.955 27.3701C133.955 24.6788 132.579 23.2732 129.23 22.4658L127.256 21.9874C126.24 21.7482 125.97 21.5089 125.97 21.15C125.97 20.9706 126.029 20.8211 126.149 20.7014C126.329 20.522 126.628 20.4324 127.106 20.4324C127.884 20.4324 128.452 20.851 128.452 21.5687V21.6584H134.134V21.5687C134.134 18.1896 131.681 16.2756 127.316 16.2756C124.684 16.2756 122.711 16.9634 121.514 18.1596C120.706 18.967 120.288 20.0136 120.288 21.2098C120.288 23.7816 121.604 25.3067 124.116 25.9048L127.166 26.6225C127.854 26.772 128.153 27.0711 128.153 27.4598C128.153 27.6991 128.093 27.8486 127.973 27.9682C127.794 28.1476 127.495 28.2373 127.016 28.2373C126.24 28.2373 125.731 27.8785 125.731 27.2206V27.1608H120.108V27.2206C120.108 30.5699 122.561 32.4239 127.016 32.4239Z" fill="#1B2644"/>
<path d="M143.668 32.4546C146.688 32.4546 149.17 31.2286 150.606 29.1353C151.503 27.8195 152.011 26.2046 152.011 24.3506C152.011 22.4966 151.503 20.8817 150.606 19.566C149.17 17.4726 146.688 16.2466 143.668 16.2466C140.648 16.2466 138.165 17.4726 136.73 19.566C135.833 20.8817 135.325 22.4966 135.325 24.3506C135.325 26.2046 135.833 27.8195 136.73 29.1353C138.165 31.2286 140.648 32.4546 143.668 32.4546ZM143.668 27.0719C143.01 27.0719 142.471 26.7728 142.113 26.2346C141.784 25.7561 141.605 25.1281 141.605 24.3506C141.605 23.5731 141.784 22.9451 142.113 22.4666C142.471 21.9284 143.01 21.6293 143.668 21.6293C144.326 21.6293 144.865 21.9284 145.223 22.4666C145.552 22.9451 145.731 23.5731 145.731 24.3506C145.731 25.1281 145.552 25.7561 145.223 26.2346C144.865 26.7728 144.326 27.0719 143.668 27.0719Z" fill="#1B2644"/>
<path d="M160.522 31.9762V23.603C160.522 22.4666 160.941 21.9582 161.539 21.9582C162.167 21.9582 162.496 22.347 162.496 23.4534V25.457H168.776V21.5097C168.776 18.0708 167.4 16.2466 164.828 16.2466C162.197 16.2466 160.792 17.5026 159.416 21.1508H158.668L160.372 16.725H154.242V31.9762H160.522Z" fill="#1B2644"/>
</g>
<defs>
<clipPath id="clip0_255_125">
<rect width="169.275" height="40.9237" fill="white" transform="translate(0.271973 0.364258)"/>
</clipPath>
</defs>
</svg>
