<svg width="159" height="40" viewBox="0 0 159 40" fill="none" xmlns="http://www.w3.org/2000/svg">
<g clip-path="url(#clip0_255_140)">
<path d="M24.6754 0.0751953L39.8223 0.075196V15.2347C23.4732 18.2763 17.0137 32.4902 15.8276 39.2169H0.680664L0.680665 24.7398C17.7992 20.1774 23.8099 6.3957 24.6754 0.0751953Z" fill="url(#paint0_linear_255_140)"/>
<path d="M0.680664 15.2221V0.0751953H15.8401C18.8817 16.4243 33.0956 22.8838 39.8223 24.0699V39.2169H25.3453C20.7828 22.0983 7.00117 16.0877 0.680664 15.2221Z" fill="url(#paint1_linear_255_140)"/>
</g>
<path opacity="0.7" d="M63.2509 29.646H55.927V8.98582H63.3114C65.3895 8.98582 67.1785 9.39942 68.6782 10.2266C70.178 11.0471 71.3314 12.2274 72.1384 13.7675C72.9522 15.3076 73.359 17.1504 73.359 19.2957C73.359 21.4478 72.9522 23.2973 72.1384 24.8441C71.3314 26.3909 70.1712 27.578 68.658 28.4052C67.1516 29.2324 65.3492 29.646 63.2509 29.646ZM60.2951 25.9034H63.0693C64.3606 25.9034 65.4467 25.6747 66.3277 25.2174C67.2155 24.7533 67.8813 24.0371 68.3251 23.0686C68.7757 22.0935 69.001 20.8358 69.001 19.2957C69.001 17.7691 68.7757 16.5215 68.3251 15.5531C67.8813 14.5846 67.2188 13.8718 66.3378 13.4144C65.4568 12.9571 64.3706 12.7285 63.0794 12.7285H60.2951V25.9034ZM78.4225 29.646H73.7417L80.8739 8.98582H86.503L93.6251 29.646H88.9443L83.7691 13.707H83.6077L78.4225 29.646ZM78.1299 21.5252H89.1864V24.9349H78.1299V21.5252ZM113.558 19.3159C113.558 21.5689 113.131 23.4856 112.277 25.0661C111.43 26.6465 110.273 27.8537 108.807 28.6876C107.347 29.5149 105.706 29.9285 103.884 29.9285C102.048 29.9285 100.4 29.5115 98.9407 28.6776C97.4813 27.8436 96.3279 26.6364 95.4806 25.056C94.6332 23.4755 94.2095 21.5622 94.2095 19.3159C94.2095 17.0629 94.6332 15.1462 95.4806 13.5658C96.3279 11.9853 97.4813 10.7815 98.9407 9.95426C100.4 9.12032 102.048 8.70335 103.884 8.70335C105.706 8.70335 107.347 9.12032 108.807 9.95426C110.273 10.7815 111.43 11.9853 112.277 13.5658C113.131 15.1462 113.558 17.0629 113.558 19.3159ZM109.13 19.3159C109.13 17.8565 108.911 16.6258 108.474 15.6237C108.043 14.6216 107.435 13.8617 106.648 13.3438C105.861 12.826 104.94 12.5671 103.884 12.5671C102.828 12.5671 101.907 12.826 101.12 13.3438C100.333 13.8617 99.7209 14.6216 99.2837 15.6237C98.8533 16.6258 98.6381 17.8565 98.6381 19.3159C98.6381 20.7753 98.8533 22.006 99.2837 23.0081C99.7209 24.0102 100.333 24.7701 101.12 25.288C101.907 25.8058 102.828 26.0648 103.884 26.0648C104.94 26.0648 105.861 25.8058 106.648 25.288C107.435 24.7701 108.043 24.0102 108.474 23.0081C108.911 22.006 109.13 20.7753 109.13 19.3159ZM116.226 29.646V8.98582H120.594V17.5102H129.461V8.98582H133.819V29.646H129.461V21.1116H120.594V29.646H116.226ZM144.65 22.4634H148.363L150.229 24.8643L152.065 27.0029L155.525 31.3408H151.45L149.069 28.4153L147.848 26.6801L144.65 22.4634ZM155.838 19.3159C155.838 21.5689 155.411 23.4856 154.557 25.0661C153.709 26.6465 152.553 27.8537 151.087 28.6876C149.627 29.5149 147.986 29.9285 146.164 29.9285C144.328 29.9285 142.68 29.5115 141.221 28.6776C139.761 27.8436 138.608 26.6364 137.76 25.056C136.913 23.4755 136.489 21.5622 136.489 19.3159C136.489 17.0629 136.913 15.1462 137.76 13.5658C138.608 11.9853 139.761 10.7815 141.221 9.95426C142.68 9.12032 144.328 8.70335 146.164 8.70335C147.986 8.70335 149.627 9.12032 151.087 9.95426C152.553 10.7815 153.709 11.9853 154.557 13.5658C155.411 15.1462 155.838 17.0629 155.838 19.3159ZM151.409 19.3159C151.409 17.8565 151.191 16.6258 150.754 15.6237C150.323 14.6216 149.715 13.8617 148.928 13.3438C148.141 12.826 147.22 12.5671 146.164 12.5671C145.108 12.5671 144.186 12.826 143.4 13.3438C142.613 13.8617 142.001 14.6216 141.564 15.6237C141.133 16.6258 140.918 17.8565 140.918 19.3159C140.918 20.7753 141.133 22.006 141.564 23.0081C142.001 24.0102 142.613 24.7701 143.4 25.288C144.186 25.8058 145.108 26.0648 146.164 26.0648C147.22 26.0648 148.141 25.8058 148.928 25.288C149.715 24.7701 150.323 24.0102 150.754 23.0081C151.191 22.006 151.409 20.7753 151.409 19.3159Z" fill="#181B36"/>
<defs>
<linearGradient id="paint0_linear_255_140" x1="4.57194" y1="31.8278" x2="35.849" y2="4.05883" gradientUnits="userSpaceOnUse">
<stop stop-color="#F857A6"/>
<stop offset="1" stop-color="#FF6C6C"/>
</linearGradient>
<linearGradient id="paint1_linear_255_140" x1="32.6654" y1="35.4401" x2="10.4574" y2="2.76852" gradientUnits="userSpaceOnUse">
<stop stop-color="#FF8008"/>
<stop offset="1" stop-color="#FFC837"/>
</linearGradient>
<clipPath id="clip0_255_140">
<rect width="39.1417" height="39.1417" fill="white" transform="translate(0.680664 0.0751953)"/>
</clipPath>
</defs>
</svg>
