<svg width="169" height="21" viewBox="0 0 169 21" fill="none" xmlns="http://www.w3.org/2000/svg">
<g clip-path="url(#clip0_255_148)">
<path d="M162.022 17.5893C162.011 16.9819 162.181 16.3849 162.51 15.8743C162.839 15.3638 163.313 14.9627 163.87 14.7223C164.428 14.4819 165.045 14.4129 165.642 14.5242C166.24 14.6355 166.79 14.9221 167.224 15.3474C167.658 15.7727 167.955 16.3174 168.078 16.9123C168.201 17.5072 168.145 18.1252 167.915 18.6878C167.686 19.2503 167.294 19.7318 166.79 20.0711C166.286 20.4103 165.693 20.5918 165.085 20.5926C164.281 20.5998 163.507 20.2876 162.933 19.7246C162.358 19.1615 162.031 18.3935 162.022 17.5893ZM167.681 17.5893C167.693 17.0724 167.55 16.5639 167.271 16.1286C166.992 15.6933 166.59 15.3511 166.115 15.1455C165.641 14.94 165.116 14.8805 164.608 14.9746C164.099 15.0688 163.631 15.3123 163.261 15.6741C162.892 16.0359 162.639 16.4995 162.534 17.0058C162.43 17.5121 162.479 18.0381 162.674 18.5166C162.87 18.9951 163.204 19.4044 163.633 19.6922C164.063 19.98 164.568 20.1333 165.085 20.1325C165.767 20.1383 166.422 19.8739 166.909 19.3972C167.395 18.9205 167.673 18.2704 167.681 17.5893ZM163.507 17.5979C163.483 17.3641 163.506 17.1277 163.578 16.9036C163.649 16.6795 163.765 16.4726 163.92 16.2958C164.075 16.1191 164.265 15.9763 164.478 15.8765C164.691 15.7767 164.922 15.7221 165.157 15.716C165.483 15.7047 165.803 15.7977 166.072 15.9812C166.341 16.1648 166.544 16.4294 166.652 16.7365L166.084 16.9543C166.024 16.7555 165.902 16.5811 165.735 16.4562C165.569 16.3314 165.368 16.2627 165.16 16.2599C164.442 16.2599 164.116 16.912 164.116 17.5985C164.116 18.285 164.434 18.9114 165.169 18.9114C165.373 18.9153 165.573 18.8508 165.736 18.7281C165.899 18.6054 166.017 18.4315 166.07 18.2342L166.613 18.4322C166.518 18.7381 166.325 19.0044 166.064 19.1901C165.803 19.3759 165.489 19.4709 165.169 19.4606C164.934 19.4574 164.702 19.4054 164.489 19.308C164.275 19.2105 164.084 19.0698 163.928 18.8946C163.772 18.7195 163.654 18.5137 163.581 18.2905C163.509 18.0673 163.484 17.8314 163.507 17.5979Z" fill="#0F0F0F"/>
<path d="M10.2789 8.96817H19.4051L19.2915 11.3609C19.252 12.6485 18.9775 13.918 18.4816 15.1068C18.0306 16.1871 17.3796 17.1725 16.5628 18.0112C15.7558 18.8253 14.7939 19.4695 13.7337 19.9056C12.6021 20.3695 11.389 20.6021 10.166 20.5894C8.83806 20.6006 7.52196 20.3389 6.29932 19.8204C5.14037 19.3321 4.09142 18.6159 3.2148 17.7141C1.42419 15.8443 0.430152 13.3518 0.442496 10.7629C0.436318 9.45197 0.68284 8.15213 1.16858 6.93449C1.63016 5.76309 2.31022 4.69013 3.17256 3.77274C4.05657 2.8386 5.12375 2.09685 6.30742 1.59383C7.49108 1.09081 8.76577 0.837349 10.0518 0.849279C10.9602 0.846669 11.8645 0.971313 12.7383 1.21958C13.5877 1.46079 14.397 1.82553 15.1403 2.3021C15.8826 2.77999 16.5488 3.36675 17.1166 4.04271C17.7089 4.75063 18.184 5.54887 18.5239 6.40709H13.0934C12.6092 6.01187 12.0402 5.73399 11.4307 5.5952C10.9597 5.48494 10.4787 5.42279 9.99506 5.40972C9.31902 5.40447 8.64982 5.54542 8.03333 5.82292C7.43307 6.09312 6.8922 6.47942 6.4419 6.95957C5.98198 7.45177 5.61997 8.02704 5.37522 8.65463C5.1179 9.3076 4.98751 10.0037 4.99106 10.7055C4.98558 11.4169 5.11596 12.1228 5.37522 12.7854C5.61977 13.4131 5.9818 13.9884 6.4419 14.4804C6.8918 14.9619 7.43271 15.3493 8.03333 15.6204C8.64983 15.8978 9.31905 16.0385 9.99506 16.0329C10.3048 16.0273 10.6136 15.9988 10.9192 15.9478C11.3202 15.8815 11.7116 15.7667 12.0849 15.6059C12.5198 15.4178 12.9226 15.1631 13.2789 14.8507C13.6914 14.4858 14.0169 14.0332 14.2314 13.526H10.2789V8.96817Z" fill="#0F0F0F"/>
<path d="M125.128 10.764C125.142 12.6901 124.587 14.5776 123.533 16.1894C122.478 17.8012 120.971 19.0655 119.2 19.8235C117.992 20.3408 116.69 20.6026 115.376 20.5924C114.076 20.6018 112.789 20.3399 111.595 19.8235C110.441 19.3252 109.394 18.6094 108.511 17.7152C107.625 16.8156 106.916 15.7574 106.422 14.5957C105.906 13.3859 105.644 12.0826 105.654 10.7673C105.646 9.45654 105.902 8.15764 106.407 6.94809C106.891 5.77892 107.59 4.71109 108.469 3.8002C109.349 2.89209 110.396 2.16197 111.552 1.64968C112.756 1.1142 114.059 0.842329 115.376 0.852316H125.128V10.764ZM120.579 10.764V5.40814H115.376C114.694 5.40865 114.02 5.54636 113.392 5.81307C112.765 6.07979 112.197 6.47005 111.723 6.96063C111.251 7.45678 110.875 8.03651 110.615 8.67021C110.338 9.33337 110.198 10.0454 110.202 10.764C110.196 11.4766 110.33 12.1834 110.598 12.8439C110.848 13.4669 111.22 14.0335 111.692 14.5105C112.166 14.9829 112.727 15.36 113.343 15.6214C113.988 15.8939 114.682 16.0343 115.382 16.0343C116.083 16.0343 116.776 15.8939 117.422 15.6214C118.035 15.3551 118.594 14.9785 119.072 14.5105C119.552 14.0364 119.929 13.4692 120.181 12.8439C120.448 12.1833 120.583 11.4765 120.577 10.764" fill="#E50914"/>
<path d="M47.1863 0.850586L53.6114 14.8375L60.0082 0.850586H64.7845V20.5927H60.2359V11.2771L56.0854 20.5927H51.1097L46.9592 11.2771V20.5927H42.4106V0.850586H47.1863Z" fill="#0F0F0F"/>
<path d="M71.4454 0.855368L75.9933 8.38812L80.458 0.822365L85.7742 0.803223L78.2864 13.4819L78.3108 20.5948L73.7622 20.6113L73.7372 13.4984L66.1582 0.87451L71.4454 0.855368Z" fill="#0F0F0F"/>
<path d="M103.827 14.2395C103.475 15.1738 102.981 16.0482 102.363 16.8316C101.758 17.6002 101.044 18.2768 100.244 18.8402C98.6122 19.985 96.6658 20.5969 94.6721 20.5921C93.3674 20.6004 92.0752 20.3386 90.8767 19.8231C89.7202 19.3295 88.6721 18.6131 87.7921 17.7148C86.9125 16.8104 86.2131 15.7468 85.7314 14.5808C85.2266 13.3718 84.9705 12.0736 84.9783 10.7636C84.9691 9.44276 85.2303 8.13405 85.7459 6.91799C86.2405 5.74779 86.9493 4.68021 87.8357 3.77011C88.7183 2.86753 89.7656 2.14226 90.9209 1.63345C93.0483 0.711107 95.4399 0.599807 97.6437 1.32058C98.568 1.62705 99.4439 2.06356 100.245 2.61696C101.044 3.17052 101.753 3.84299 102.349 4.61104C102.96 5.39759 103.45 6.27162 103.801 7.2038H98.5698C98.0968 6.65367 97.5152 6.20716 96.8615 5.89224C96.1881 5.56712 95.4489 5.40135 94.7011 5.40775C94.0192 5.40826 93.3444 5.54597 92.7169 5.81268C92.0893 6.0794 91.5219 6.46966 91.0483 6.96024C90.5758 7.45639 90.1998 8.03612 89.9394 8.66982C89.6627 9.33298 89.5224 10.045 89.5268 10.7636C89.5205 11.4762 89.6551 12.183 89.9229 12.8435C90.1728 13.4665 90.5449 14.0332 91.0173 14.5101C91.4913 14.9825 92.0515 15.3596 92.6674 15.621C93.3394 15.9051 94.0634 16.0455 94.7928 16.0332C95.5223 16.021 96.2411 15.8563 96.9031 15.5498C97.5617 15.2378 98.1476 14.7915 98.6233 14.2395H103.827Z" fill="#0F0F0F"/>
<path d="M133.871 20.5902H126.766V0.850782H133.871C135.267 0.842895 136.654 1.07281 137.973 1.53066C139.225 1.9624 140.382 2.63063 141.381 3.49899C142.366 4.36131 143.158 5.42153 143.706 6.61057C144.288 7.89118 144.579 9.28472 144.559 10.6911C144.579 12.0978 144.288 13.4915 143.706 14.7724C143.16 15.9587 142.379 17.0221 141.41 17.8985C140.422 18.7817 139.268 19.4604 138.016 19.8952C136.685 20.3639 135.283 20.599 133.871 20.5902ZM131.387 15.9592H133.871C134.796 15.9791 135.717 15.8271 136.586 15.511C137.293 15.2519 137.938 14.8471 138.479 14.3229C138.959 13.8472 139.333 13.2751 139.576 12.6443C140.058 11.4061 140.058 10.0323 139.576 8.79409C139.333 8.16332 138.959 7.59123 138.479 7.11553C137.938 6.59143 137.293 6.18666 136.586 5.9274C135.717 5.6117 134.796 5.45974 133.871 5.47921H131.387V15.9592Z" fill="#0F0F0F"/>
<path d="M146.207 20.5927V0.850586H160.451V5.48231H150.828V8.40578H160.451V13.0368H150.828V15.961H160.451V20.592L146.207 20.5927Z" fill="#0F0F0F"/>
<path d="M30.8905 0.765154C28.9204 0.761497 26.9935 1.34239 25.3537 2.43432C23.7139 3.52625 22.4348 5.08012 21.6785 6.89927C20.9221 8.71842 20.7225 10.7211 21.1048 12.6537C21.4871 14.5864 22.4342 16.3622 23.8261 17.7564C25.2181 19.1506 26.9924 20.1005 28.9245 20.4859C30.8565 20.8712 32.8595 20.6748 34.6798 19.9213C36.5002 19.1679 38.0561 17.8913 39.1506 16.2532C40.2452 14.6151 40.8291 12.6892 40.8286 10.719C40.8296 9.41292 40.5734 8.11938 40.0745 6.91228C39.5757 5.70519 38.8439 4.60817 37.9211 3.68386C36.9983 2.75956 35.9024 2.02607 34.6961 1.52528C33.4898 1.02448 32.1967 0.766194 30.8905 0.765154ZM30.8905 15.9191C29.8624 15.9207 28.8568 15.6172 28.0011 15.0472C27.1454 14.4772 26.478 13.6662 26.0834 12.7168C25.6887 11.7673 25.5845 10.7222 25.7839 9.71356C25.9834 8.70491 26.4775 7.77807 27.2038 7.05031C27.9301 6.32254 28.8559 5.82654 29.8641 5.62505C30.8724 5.42357 31.9177 5.52566 32.8679 5.9184C33.8181 6.31114 34.6305 6.97689 35.2023 7.83142C35.774 8.68595 36.0795 9.69087 36.08 10.719C36.0812 11.4013 35.9478 12.0771 35.6875 12.7078C35.4272 13.3385 35.0452 13.9117 34.5632 14.3946C34.0812 14.8775 33.5087 15.2606 32.8786 15.5221C32.2484 15.7836 31.5728 15.9183 30.8905 15.9184V15.9191Z" fill="#0F0F0F"/>
</g>
<defs>
<clipPath id="clip0_255_148">
<rect width="167.493" height="19.8022" fill="white" transform="translate(0.647461 0.875244)"/>
</clipPath>
</defs>
</svg>
