<svg width="121" height="36" viewBox="0 0 121 36" fill="none" xmlns="http://www.w3.org/2000/svg">
<g clip-path="url(#clip0_255_93)">
<path d="M31.6201 2.0332H40.9394C45.1276 2.0332 48.7403 4.76873 48.7403 9.59838C48.7403 14.428 45.1276 17.1945 40.9394 17.1945H35.3022V25.6676H31.6201V2.0332ZM40.7037 13.9876C43.3735 13.9876 45.1625 12.2296 45.1625 9.59838C45.1625 6.96718 43.3735 5.2401 40.7037 5.2401H35.2945V13.9876H40.7037Z" fill="black"/>
<path d="M50.0928 8.95747H53.6397V11.2178C55.0229 9.35929 57.1827 8.65223 60.0882 8.68701V12.4348C59.3891 12.1585 58.6411 12.0271 57.8898 12.0485C55.699 12.0485 53.6397 13.8412 53.6397 17.1833V25.6681H50.0928V8.95747Z" fill="black"/>
<path d="M60.0574 17.2955C60.043 15.5347 60.5518 13.8094 61.5194 12.3384C62.4869 10.8675 63.8696 9.71704 65.4921 9.03316C67.1147 8.34929 68.9037 8.1628 70.6323 8.49735C72.3609 8.83191 73.9512 9.67242 75.2014 10.9123C76.4515 12.1521 77.3053 13.7354 77.6541 15.4612C78.0029 17.187 77.8314 18.9775 77.1609 20.6056C76.4906 22.2337 75.3516 23.6259 73.8887 24.6057C72.4258 25.5854 70.7047 26.1085 68.9441 26.1086C66.5977 26.1158 64.3443 25.1919 62.6783 23.5397C61.0122 21.8874 60.0698 19.6417 60.0574 17.2955ZM74.1678 17.3302C74.1678 14.2392 71.8728 11.8283 68.9363 11.8592C65.9961 11.8283 63.7357 14.2238 63.7357 17.3302C63.7357 20.4367 65.9961 22.7974 68.9363 22.7549C71.8728 22.7974 74.1678 20.4019 74.1678 17.3457V17.3302Z" fill="black"/>
<path d="M79.5732 8.95708H83.1201V11.3526C84.5033 9.7646 86.327 8.71753 89.2634 8.71753C93.8226 8.71753 97.2304 12.4654 97.2304 17.3298C97.2304 22.1942 93.8226 25.9073 89.2634 25.9073C86.327 25.9073 84.5033 24.8254 83.1201 23.3069V34.1254H79.5732V8.95708ZM93.6951 17.3452C93.6951 14.204 91.431 11.8085 88.425 11.8085C85.419 11.8085 83.1201 14.1886 83.1201 17.3452C83.1201 20.5019 85.4151 22.8472 88.4173 22.8472C91.4194 22.8472 93.6951 20.4362 93.6951 17.3452Z" fill="black"/>
<path d="M115.162 17.0254C115.162 17.4118 115.162 17.7981 115.127 18.2424H101.218C101.604 21.3334 103.922 23.1725 106.685 23.1725C107.629 23.1938 108.567 23.0013 109.426 22.6092C110.286 22.2172 111.047 21.6357 111.65 20.9084L113.814 22.7321C112.268 24.8919 109.49 26.0742 106.685 26.0742C105.535 26.0876 104.393 25.8712 103.327 25.4374C102.262 25.0036 101.293 24.3615 100.479 23.5485C99.6652 22.7355 99.0217 21.768 98.5865 20.7029C98.1515 19.6378 97.9334 18.4966 97.9453 17.346C97.9453 12.3464 101.693 8.4981 106.689 8.4981C111.515 8.48265 115.062 11.7591 115.162 17.0254ZM101.287 15.9126H111.99C111.414 12.9723 109.455 11.2529 106.685 11.2529C103.915 11.2529 101.809 13.0959 101.287 15.9126Z" fill="black"/>
<path d="M120.092 0.345459H116.726V25.6683H120.092V0.345459Z" fill="black"/>
<path d="M19.1792 2.21558V8.5289L6.67237 15.7503L0.416992 12.1338V5.82816L6.67237 9.44461L19.1792 2.21558Z" fill="black"/>
<path d="M25.4381 12.1377V18.451L12.9311 25.6684L6.67578 22.052V15.7464L12.9311 19.3628L25.4381 12.1377Z" fill="black"/>
</g>
<defs>
<clipPath id="clip0_255_93">
<rect width="120.288" height="34.8203" fill="white" transform="translate(0.416504 0.345215)"/>
</clipPath>
</defs>
</svg>
