<svg width="159" height="41" viewBox="0 0 159 41" fill="none" xmlns="http://www.w3.org/2000/svg">
<g clip-path="url(#clip0_255_115)">
<path fill-rule="evenodd" clip-rule="evenodd" d="M28.6296 0.364261C28.9797 0.363619 29.3343 0.450281 29.6592 0.632583C29.6696 0.63836 29.6799 0.644131 29.6902 0.649908L38.411 5.6536L38.4162 5.65617L38.4212 5.65937C38.5789 5.74925 38.7248 5.86029 38.8566 5.99061C38.9878 6.12091 39.0995 6.26662 39.1899 6.42325C39.281 6.57923 39.352 6.74805 39.3998 6.92586C39.4476 7.10431 39.4709 7.28597 39.4709 7.46636V17.4853C39.4709 17.4969 39.4709 17.5084 39.4709 17.5205C39.4671 17.8916 39.365 18.2401 39.1899 18.5405C39.0156 18.8416 38.763 19.1035 38.4413 19.2929C38.421 19.3043 38.404 19.3143 38.3838 19.3259C37.9965 19.548 33.5749 22.0853 31.6332 23.1989C31.0738 23.5198 30.7289 24.113 30.7289 24.7555V32.5322C30.7289 32.5439 30.7289 32.5553 30.7289 32.5676C30.7251 32.9386 30.623 33.2871 30.4479 33.5876C30.2736 33.8886 30.021 34.1505 29.6993 34.3399C29.6896 34.3457 29.6792 34.3515 29.6689 34.3572L20.9482 39.3609L20.9431 39.3641L20.9379 39.3667C20.7809 39.4572 20.6111 39.5279 20.4315 39.5759C20.2525 39.6235 20.0697 39.6466 19.8882 39.6466C19.7067 39.6466 19.524 39.6235 19.345 39.5759C19.1654 39.5279 18.9956 39.4572 18.8386 39.3667L18.8334 39.3641L18.8276 39.3609L10.1072 34.3572C10.097 34.3515 10.0869 34.3457 10.0768 34.3399C9.75514 34.1505 9.50264 33.8886 9.32825 33.5876C9.153 33.2866 9.05121 32.9386 9.04714 32.5676C9.047 32.556 9.04694 32.5439 9.047 32.5322V24.7555C9.047 24.113 8.70233 23.5198 8.1427 23.1989C6.20177 22.0855 1.78049 19.5485 1.39269 19.3259C1.37241 19.3143 1.35523 19.3045 1.33492 19.2929C1.01338 19.1035 0.76088 18.8416 0.586479 18.5405C0.411173 18.2396 0.309375 17.8916 0.30537 17.5205C0.305241 17.509 0.305175 17.4969 0.30524 17.4853V7.47855L0.305177 7.47213V7.46636C0.304983 7.28597 0.328301 7.10431 0.376358 6.92586C0.424351 6.74805 0.495532 6.57923 0.586479 6.42325C0.676973 6.26662 0.788528 6.12091 0.919781 5.99061C1.05103 5.86029 1.19759 5.74925 1.35488 5.65937L1.35992 5.65617L1.36541 5.6536L10.0861 0.649908C10.0963 0.644131 10.1064 0.63836 10.1167 0.632583C10.4423 0.450281 10.7966 0.363619 11.1463 0.364261C11.496 0.363619 11.8504 0.450281 12.1759 0.632583C12.1963 0.644136 12.2136 0.653941 12.2339 0.665611C12.6223 0.888439 17.0433 3.42461 18.984 4.53861C19.5433 4.85956 20.2325 4.85956 20.7925 4.53861C22.7336 3.42444 27.1552 0.887666 27.5425 0.665509C27.5627 0.653911 27.58 0.64452 27.6 0.632583C27.9262 0.450281 28.2802 0.363619 28.6296 0.364261ZM13.2455 30.3023C13.2455 30.9442 13.5904 31.538 14.1498 31.859C15.0225 32.3596 16.3233 33.1061 17.1107 33.5574C17.2502 33.6376 17.4227 33.6376 17.5629 33.5574C17.7024 33.4772 17.789 33.3288 17.789 33.1684V29.7708C17.789 29.1289 17.444 28.5357 16.8847 28.2142C16.012 27.7142 14.7111 26.967 13.9238 26.5157C13.7843 26.4354 13.6118 26.4354 13.4716 26.5157C13.3321 26.5959 13.2455 26.7442 13.2455 26.9047V30.3023ZM26.5304 22.505V16.8736C26.5304 16.713 26.4444 16.5648 26.3042 16.4846C26.1647 16.4044 25.9922 16.4044 25.8522 16.4846C25.0653 16.9358 23.7645 17.6823 22.8918 18.183C22.3318 18.504 21.9875 19.0978 21.9875 19.7397C21.9875 22.0711 21.9875 27.5209 21.9875 27.5209C21.9875 27.5273 21.9875 27.5343 21.9875 27.5408V33.1684C21.9875 33.3288 22.0734 33.4772 22.2136 33.5574C22.3531 33.6376 22.5256 33.6376 22.6658 33.5574C23.4525 33.1061 24.754 32.3596 25.626 31.859C26.1861 31.538 26.5304 30.9442 26.5304 30.3023C26.5304 27.9722 26.5304 22.5256 26.5304 22.5256C26.5304 22.5185 26.5304 22.512 26.5304 22.505ZM10.0991 14.2899C10.0903 14.2851 10.0827 14.2801 10.074 14.2752C9.85122 14.1474 6.6177 12.2922 5.18202 11.4687C5.04211 11.3884 4.86971 11.3884 4.72987 11.4687C4.58996 11.5489 4.50378 11.6972 4.50378 11.8577C4.50378 12.7608 4.50378 14.2539 4.50378 15.2553C4.50378 15.8972 4.84846 16.491 5.40809 16.812C7.39856 17.9538 11.9977 20.5929 12.1798 20.6974C12.1857 20.7007 12.1883 20.7022 12.1942 20.7054C12.2001 20.7087 12.205 20.7113 12.2107 20.7146C12.3906 20.8178 15.6637 22.6961 17.1107 23.5263C17.2502 23.6065 17.4227 23.6065 17.5629 23.5263C17.7024 23.4461 17.789 23.2978 17.789 23.1373C17.789 22.2342 17.789 20.7411 17.789 19.7397C17.789 19.0978 17.444 18.504 16.8847 18.183C14.8748 17.0297 10.2043 14.3501 10.1053 14.2933C10.1022 14.2915 10.1022 14.2916 10.0991 14.2899ZM31.6332 13.1672C31.0738 13.4887 30.7289 14.0819 30.7289 14.7238V18.1214C30.7289 18.2819 30.8155 18.4302 30.955 18.5104C31.0951 18.5906 31.2676 18.5906 31.4071 18.5104C32.1945 18.0591 33.4955 17.3127 34.368 16.812C34.9274 16.491 35.2724 15.8972 35.2724 15.2553V11.8577C35.2724 11.6972 35.1864 11.5489 35.0462 11.4687C34.9067 11.3884 34.7343 11.3884 34.5942 11.4687C33.8073 11.9206 32.5058 12.6665 31.6332 13.1672ZM27.5771 10.6771C27.5865 10.6719 27.5945 10.6668 27.6038 10.6615C27.8326 10.5302 31.0604 8.67796 32.4949 7.85535C32.6351 7.7751 32.7209 7.62683 32.7209 7.46636C32.7209 7.30588 32.6351 7.1576 32.4949 7.07671C31.7082 6.62546 30.4065 5.87891 29.534 5.37822C28.9745 5.05727 28.2853 5.05727 27.7253 5.37822C25.7112 6.53375 21.0258 9.22239 20.9492 9.26637C20.9467 9.26774 20.9471 9.26754 20.9447 9.26888C20.9352 9.2741 20.9272 9.27919 20.9179 9.28454C20.6891 9.41581 17.4581 11.2693 16.0229 12.0926C15.8834 12.1728 15.7969 12.3212 15.7969 12.4816C15.7969 12.6421 15.8834 12.7909 16.0229 12.8713C16.8103 13.3225 18.1113 14.069 18.984 14.5697C19.5433 14.8907 20.2325 14.8907 20.7925 14.5697C22.8073 13.4136 27.4961 10.7235 27.5726 10.6797C27.575 10.6783 27.5746 10.6785 27.5771 10.6771ZM7.28129 7.07671C7.14138 7.1576 7.05522 7.30588 7.05522 7.46636C7.05522 7.62683 7.14138 7.7751 7.28129 7.85535C8.06829 8.30661 9.36945 9.05315 10.242 9.55384C10.8016 9.8748 11.491 9.8748 12.0506 9.55384C12.9231 9.05315 14.224 8.30661 15.0114 7.85535C15.1509 7.7751 15.2376 7.62683 15.2376 7.46636C15.2376 7.30588 15.1509 7.1576 15.0114 7.07671C14.224 6.62546 12.9231 5.87891 12.0506 5.37822C11.491 5.05727 10.8016 5.05727 10.242 5.37822C9.36945 5.87891 8.06829 6.62546 7.28129 7.07671Z" fill="#8F00FF"/>
<path d="M58.1692 33.9957C56.9352 33.9957 55.7399 33.7659 54.6601 33.306C53.5805 32.8078 52.6165 32.1947 51.8066 31.3517C50.9583 30.5469 50.3414 29.5889 49.8401 28.5159C49.3774 27.4429 49.146 26.2551 49.146 25.0288V6.71173C49.146 6.33406 49.501 5.98364 49.8787 5.98364H53.5419C53.9196 5.98364 54.2746 6.33406 54.2746 6.71173V13.2645C54.2746 13.6491 54.6225 13.9926 55.0072 13.9926H61.3311C61.5239 13.9926 61.7168 14.0692 61.871 14.2225C61.9867 14.3375 62.0638 14.529 62.0638 14.7207V18.3611C62.0638 18.5527 61.9867 18.7443 61.871 18.8593C61.7168 19.0126 61.5239 19.0891 61.3311 19.0891H55.0072C54.6225 19.0891 54.2746 19.4326 54.2746 19.8172V25.0288C54.2746 25.5653 54.3903 26.0635 54.583 26.5233C54.7758 27.0214 55.0458 27.4047 55.3928 27.7495C55.7399 28.1328 56.164 28.401 56.6268 28.5926C57.1281 28.8225 57.6293 28.8992 58.1692 28.8992H61.3311C61.7553 28.8992 62.0638 29.244 62.0638 29.6273V33.2677C62.0638 33.6892 61.7553 33.9957 61.3311 33.9957H58.1692Z" fill="#8F00FF"/>
<path d="M91.923 34.0293C91.6144 34.0293 91.3445 33.8377 91.2674 33.5694C90.2649 31.0019 85.5219 18.5862 84.1337 14.9841C84.0565 14.7542 84.0565 14.486 84.2108 14.2944C84.3265 14.1027 84.5579 13.9878 84.7892 13.9878H88.9152C89.3393 13.9878 89.6864 14.256 89.8407 14.6393C90.4962 16.4786 92.3856 21.8435 93.3497 24.6791C93.4654 24.9473 93.7352 25.139 94.0051 25.139C94.3137 25.139 94.545 24.9473 94.6607 24.6791C95.6633 21.8435 97.5142 16.4786 98.1697 14.6393C98.3239 14.256 98.671 13.9878 99.0951 13.9878H103.221C103.453 13.9878 103.684 14.1027 103.8 14.2944C103.954 14.486 103.992 14.7542 103.877 14.9841C102.527 18.5862 97.7455 31.0019 96.7815 33.5694C96.6659 33.8377 96.396 34.0293 96.0874 34.0293H91.923Z" fill="#8F00FF"/>
<path d="M135.278 13.5264C136.505 13.5269 137.665 13.7607 138.756 14.228C139.849 14.6959 140.802 15.3382 141.619 16.1553C142.434 16.9724 143.077 17.9265 143.548 19.018C144.018 20.1094 144.254 21.2727 144.254 22.5076C144.254 22.5076 144.254 30.7231 144.254 33.2368C144.254 33.4283 144.178 33.6119 144.041 33.7473C143.904 33.8827 143.721 33.9588 143.528 33.9588C142.55 33.9588 140.818 33.9588 139.841 33.9588C139.648 33.9588 139.463 33.8827 139.326 33.7473C139.191 33.6119 139.115 33.4283 139.115 33.2368V22.5076C139.115 21.9838 139.014 21.488 138.813 21.0202C138.611 20.5523 138.336 20.1438 137.984 19.7946C137.634 19.4452 137.224 19.1709 136.76 18.9712C136.296 18.7718 135.802 18.6721 135.274 18.672C134.748 18.6721 134.253 18.7718 133.788 18.9712C133.324 19.1709 132.916 19.4452 132.565 19.7946C132.213 20.1438 131.937 20.5523 131.737 21.0202C131.535 21.488 131.435 21.9838 131.435 22.5076C131.435 22.5076 131.435 30.7231 131.435 33.2368C131.435 33.4283 131.359 33.6119 131.222 33.7473C131.086 33.8827 130.902 33.9588 130.709 33.9588C129.731 33.9588 127.999 33.9588 127.022 33.9588C126.829 33.9588 126.644 33.8827 126.507 33.7473C126.372 33.6119 126.296 33.4283 126.296 33.2368C126.296 30.7231 126.296 22.5076 126.296 22.5076C126.296 21.2727 126.53 20.1094 127 19.018C127.471 17.9265 128.115 16.9724 128.931 16.1553C129.747 15.3382 130.701 14.6959 131.792 14.228C132.884 13.7607 134.044 13.5269 135.272 13.5264H135.278Z" fill="#8F00FF"/>
<path d="M154.994 33.9941C153.76 33.9941 152.565 33.7641 151.484 33.3042C150.405 32.8061 149.441 32.193 148.631 31.35C147.783 30.5452 147.166 29.5871 146.665 28.5142C146.202 27.4413 145.971 26.2533 145.971 25.027V6.71002C145.971 6.33235 146.326 5.98193 146.703 5.98193H150.366C150.744 5.98193 151.099 6.33235 151.099 6.71002V13.2627C151.099 13.6474 151.448 13.9908 151.831 13.9908H158.155C158.348 13.9908 158.541 14.0675 158.695 14.2208C158.811 14.3357 158.888 14.5274 158.888 14.719V18.3594C158.888 18.5509 158.811 18.7425 158.695 18.8575C158.541 19.0108 158.348 19.0875 158.155 19.0875H151.831C151.448 19.0875 151.099 19.4309 151.099 19.8155V25.027C151.099 25.5636 151.214 26.0617 151.407 26.5215C151.6 27.0197 151.87 27.4029 152.218 27.7478C152.565 28.131 152.989 28.3993 153.452 28.5908C153.953 28.8208 154.454 28.8974 154.994 28.8974H158.155C158.58 28.8974 158.888 29.2423 158.888 29.6255V33.2659C158.888 33.6875 158.58 33.9941 158.155 33.9941H154.994Z" fill="#8F00FF"/>
<path fill-rule="evenodd" clip-rule="evenodd" d="M121.845 29.1834C122.04 29.2864 122.179 29.4713 122.22 29.6869C122.262 29.9026 122.202 30.1258 122.058 30.2924C120.119 32.5537 117.233 33.989 114.012 33.989C108.181 33.989 103.446 29.2835 103.446 23.4874C103.446 17.692 108.181 12.9866 114.012 12.9866C119.845 12.9866 124.579 17.692 124.579 23.4874C124.579 23.9619 124.547 24.4288 124.485 24.886C124.421 25.3635 124.011 25.7197 123.526 25.7197C121.001 25.7197 113.468 25.7197 113.468 25.7197C113.468 25.7197 111.155 25.7197 109.88 25.7197C109.702 25.7197 109.538 25.817 109.454 25.9729C109.368 26.1288 109.377 26.3175 109.475 26.4658C110.449 27.9272 112.119 28.8916 114.012 28.8916C115.404 28.8916 116.673 28.3719 117.635 27.517C117.861 27.3158 118.189 27.2754 118.458 27.415C119.253 27.8309 120.878 28.68 121.845 29.1834ZM118.305 21.5109C118.478 21.5109 118.637 21.4195 118.724 21.2703C118.811 21.1221 118.811 20.9382 118.725 20.7899C117.785 19.1726 116.025 18.0839 114.012 18.0839C111.999 18.0839 110.241 19.1726 109.301 20.7899C109.214 20.9382 109.215 21.1221 109.302 21.2703C109.388 21.4195 109.548 21.5109 109.721 21.5109C111.603 21.5109 116.422 21.5109 118.305 21.5109Z" fill="#8F00FF"/>
<path fill-rule="evenodd" clip-rule="evenodd" d="M81.8375 29.1834C82.0332 29.2864 82.1718 29.4713 82.2134 29.6869C82.2551 29.9026 82.195 30.1258 82.0516 30.2924C80.1122 32.5537 77.2265 33.989 74.0056 33.989C68.1741 33.989 63.439 29.2835 63.439 23.4874C63.439 17.692 68.1741 12.9866 74.0056 12.9866C79.8382 12.9866 84.5721 17.692 84.5721 23.4874C84.5721 23.9619 84.5411 24.4288 84.4792 24.886C84.4142 25.3635 84.0045 25.7197 83.5192 25.7197C80.9948 25.7197 73.4611 25.7197 73.4611 25.7197C73.4611 25.7197 71.148 25.7197 69.8731 25.7197C69.6949 25.7197 69.5312 25.817 69.4469 25.9729C69.3616 26.1288 69.3704 26.3175 69.4682 26.4658C70.4417 27.9272 72.1118 28.8916 74.0056 28.8916C75.3967 28.8916 76.6666 28.3719 77.6286 27.517C77.8543 27.3158 78.1827 27.2754 78.451 27.415C79.2462 27.8309 80.8717 28.68 81.8375 29.1834ZM78.298 21.5109C78.4703 21.5109 78.6302 21.4195 78.7164 21.2703C78.8036 21.1221 78.8036 20.9382 78.7174 20.7899C77.7777 19.1726 76.0186 18.0839 74.0056 18.0839C71.9926 18.0839 70.2344 19.1726 69.2938 20.7899C69.2076 20.9382 69.2086 21.1221 69.2949 21.2703C69.381 21.4195 69.5409 21.5109 69.7143 21.5109C71.5964 21.5109 76.4147 21.5109 78.298 21.5109Z" fill="#8F00FF"/>
</g>
<defs>
<clipPath id="clip0_255_115">
<rect width="158.584" height="40.2206" fill="white" transform="translate(0.305176 0.364258)"/>
</clipPath>
</defs>
</svg>
