<svg width="150" height="56" viewBox="0 0 150 56" fill="none" xmlns="http://www.w3.org/2000/svg">
<path d="M70.6621 13.0096C73.8538 13.0096 75.5856 14.9848 75.0418 18.0191C74.5122 21.0391 72.0933 22.9999 68.8873 22.9999H65.395L67.1698 13.0096H70.6621ZM67.7136 21.3683H69.1163C71.2346 21.3683 72.6229 20.0944 72.995 18.0191C73.3529 15.9437 72.4082 14.6842 70.2899 14.6842H68.8873L67.7136 21.3683Z" fill="black"/>
<path d="M83.9414 12.9953L83.6694 14.5697H79.8766L79.4185 17.1603H82.782L82.5101 18.7061H79.1466L78.6743 21.4112H82.4672L82.1809 22.9999H76.3699L78.1447 12.9953H83.9414Z" fill="black"/>
<path d="M87.5944 22.9999L85.6908 13.0096H87.8377L89.1688 20.9532L93.3194 13.0096H95.452L90.0275 22.9999H87.5944Z" fill="black"/>
<path d="M103.166 12.9953L102.894 14.5697H99.1009L98.6429 17.1603H102.006L101.734 18.7061H98.3709L97.8986 21.4112H101.691L101.405 22.9999H95.5943L97.369 12.9953H103.166Z" fill="black"/>
<path d="M105.702 13.0096H107.706L106.218 21.4685H109.509L109.238 22.9999H103.928L105.702 13.0096Z" fill="black"/>
<path d="M121.833 17.0458C121.833 20.5668 119.356 23.1001 115.893 23.1001C113.331 23.1001 111.642 21.3683 111.642 18.8922C111.642 15.3999 114.132 12.8665 117.567 12.8665C120.158 12.8665 121.833 14.584 121.833 17.0458ZM113.689 18.7204C113.689 20.2805 114.59 21.2538 116.179 21.2538C118.383 21.2538 119.8 19.3931 119.8 17.2319C119.8 15.6718 118.884 14.7129 117.295 14.7129C115.106 14.7129 113.689 16.5449 113.689 18.7204Z" fill="black"/>
<path d="M126.143 17.5897H127.732C128.862 17.5897 129.463 16.9886 129.621 16.1012C129.778 15.1852 129.392 14.5983 128.247 14.5983H126.672L126.143 17.5897ZM131.668 16.1012C131.41 17.6183 130.108 19.1641 127.531 19.1641H125.857L125.184 22.9999H123.166L124.941 13.0096H128.619C131.024 13.0096 131.968 14.3693 131.668 16.1012Z" fill="black"/>
<path d="M140.161 12.9953L139.889 14.5697H136.096L135.638 17.1603H139.001L138.729 18.7061H135.366L134.894 21.4112H138.687L138.4 22.9999H132.589L134.364 12.9953H140.161Z" fill="black"/>
<path d="M147.449 16.1155C147.607 15.2138 147.192 14.627 146.089 14.627H144.415L143.885 17.6183H145.56C146.662 17.6183 147.292 17.0172 147.449 16.1155ZM142.697 13.0096H146.447C148.852 13.0096 149.796 14.398 149.51 16.0726C149.296 17.2748 148.422 18.5057 146.734 18.9494L148.408 22.9999H146.075L144.587 19.1069H143.628L142.941 22.9999H140.923L142.697 13.0096Z" fill="black"/>
<path d="M78.426 43.9999L80.2008 34.0096H82.4765L84.3515 41.4236L88.817 34.0096H91.0928L89.3323 43.9999H87.3142L88.4592 37.5306L84.652 43.9999H83.1206L81.5891 37.5163L80.4441 43.9999H78.426Z" fill="black"/>
<path d="M99.5861 33.9953L99.3142 35.5697H95.5213L95.0633 38.1603H98.4268L98.1549 39.7061H94.7914L94.319 42.4112H98.1119L97.8257 43.9999H92.0147L93.7895 33.9953H99.5861Z" fill="black"/>
<path d="M107.919 33.9953L107.647 35.5697H103.855L103.397 38.1603H106.76L106.488 39.7061H103.125L102.652 42.4112H106.445L106.159 43.9999H100.348L102.123 33.9953H107.919Z" fill="black"/>
<path d="M109.64 35.584L109.926 34.0096H117.255L116.968 35.584H114.32L112.832 43.9999H110.814L112.302 35.584H109.64Z" fill="black"/>
<path d="M118.316 40.1784L119.404 34.0096H121.407L120.32 40.1784C120.076 41.5524 120.692 42.2681 121.966 42.2681C123.254 42.2681 124.127 41.5524 124.37 40.1784L125.458 34.0096H127.476L126.388 40.1784C125.916 42.8406 123.84 44.1001 121.622 44.1001C119.432 44.1001 117.858 42.812 118.316 40.1784Z" fill="black"/>
<path d="M131.33 38.5897H132.919C134.049 38.5897 134.65 37.9886 134.808 37.1012C134.965 36.1852 134.579 35.5984 133.434 35.5984H131.859L131.33 38.5897ZM136.855 37.1012C136.597 38.6183 135.294 40.1641 132.718 40.1641H131.044L130.371 43.9999H128.353L130.128 34.0096H133.806C136.21 34.0096 137.155 35.3693 136.855 37.1012Z" fill="black"/>
<path d="M7.85714 0.927979C3.52344 0.927979 0 4.45142 0 8.78512V48.0708C0 52.4045 3.52344 55.928 7.85714 55.928H47.1429C51.4766 55.928 55 52.4045 55 48.0708V8.78512C55 4.45142 51.4766 0.927979 47.1429 0.927979H7.85714ZM44.3315 11.2405L31.5882 25.8007L46.5781 45.6155H34.8415L25.6585 33.5965L15.1373 45.6155H9.3058L22.933 30.0362L8.55692 11.2405H20.5882L28.8996 22.2282L38.5 11.2405H44.3315ZM39.6908 42.1289L18.8326 14.5429H15.3583L36.4498 42.1289H39.6908Z" fill="#181B36"/>
</svg>
